<svg xmlns="http://www.w3.org/2000/svg" xmlns:xlink="http://www.w3.org/1999/xlink" width="1280" zoomAndPan="magnify" viewBox="0 0 960 599.999999" height="800" preserveAspectRatio="xMidYMid meet" version="1.0"><defs><g/><clipPath id="a373806a15"><path d="M 403.714844 179.089844 L 407.9375 179.089844 L 407.9375 182.734375 L 403.714844 182.734375 Z M 403.714844 179.089844 " clip-rule="nonzero"/></clipPath><clipPath id="61a48a51ce"><path d="M 407.925781 180.375 C 406.050781 183.449219 404.25 182.851562 403.875 182.25 C 403.5 181.574219 403.875 179.773438 404.398438 179.25 C 405 178.800781 407.398438 179.476562 407.398438 179.476562 " clip-rule="nonzero"/></clipPath><clipPath id="073f0ec697"><path d="M 403.15625 181.503906 L 404.578125 181.503906 L 404.578125 182.695312 L 403.15625 182.695312 Z M 403.15625 181.503906 " clip-rule="nonzero"/></clipPath><clipPath id="9a8a47e396"><path d="M 404.550781 181.875 C 403.949219 182.925781 403.351562 182.699219 403.199219 182.550781 C 403.125 182.324219 403.199219 181.726562 403.425781 181.574219 C 403.574219 181.425781 404.398438 181.574219 404.398438 181.574219 " clip-rule="nonzero"/></clipPath><clipPath id="bcd7f732fd"><path d="M 404.027344 182.148438 L 405.476562 182.148438 L 405.476562 183.371094 L 404.027344 183.371094 Z M 404.027344 182.148438 " clip-rule="nonzero"/></clipPath><clipPath id="807fd460ae"><path d="M 405.449219 182.550781 C 404.851562 183.601562 404.25 183.375 404.101562 183.226562 C 403.949219 183 404.101562 182.398438 404.25 182.25 C 404.476562 182.023438 405.300781 182.25 405.300781 182.25 " clip-rule="nonzero"/></clipPath><clipPath id="7785b7de0a"><path d="M 404.925781 182.75 L 406.375 182.75 L 406.375 183.96875 L 404.925781 183.96875 Z M 404.925781 182.75 " clip-rule="nonzero"/></clipPath><clipPath id="1eae7cc20e"><path d="M 406.351562 183.148438 C 405.75 184.199219 405.148438 183.976562 405 183.824219 C 404.851562 183.601562 405 183 405.148438 182.851562 C 405.375 182.625 406.199219 182.851562 406.199219 182.851562 " clip-rule="nonzero"/></clipPath><clipPath id="0973ef7901"><path d="M 405.527344 182.148438 L 406.976562 182.148438 L 406.976562 183.371094 L 405.527344 183.371094 Z M 405.527344 182.148438 " clip-rule="nonzero"/></clipPath><clipPath id="3c0b68fd04"><path d="M 406.949219 182.550781 C 406.351562 183.601562 405.75 183.375 405.601562 183.226562 C 405.449219 183 405.601562 182.398438 405.75 182.25 C 405.976562 182.023438 406.800781 182.25 406.800781 182.25 " clip-rule="nonzero"/></clipPath><clipPath id="95175f456c"><path d="M 405.378906 181.847656 L 406.828125 181.847656 L 406.828125 183.070312 L 405.378906 183.070312 Z M 405.378906 181.847656 " clip-rule="nonzero"/></clipPath><clipPath id="4c16d7eb45"><path d="M 406.800781 182.25 C 406.199219 183.300781 405.601562 183.074219 405.449219 182.925781 C 405.300781 182.699219 405.449219 182.101562 405.601562 181.949219 C 405.824219 181.726562 406.648438 181.949219 406.648438 181.949219 " clip-rule="nonzero"/></clipPath><clipPath id="b56adebb6d"><path d="M 405.828125 182.449219 L 407.277344 182.449219 L 407.277344 183.671875 L 405.828125 183.671875 Z M 405.828125 182.449219 " clip-rule="nonzero"/></clipPath><clipPath id="033a7c1098"><path d="M 407.25 182.851562 C 406.648438 183.898438 406.050781 183.675781 405.898438 183.523438 C 405.75 183.300781 405.898438 182.699219 406.050781 182.550781 C 406.273438 182.324219 407.101562 182.550781 407.101562 182.550781 " clip-rule="nonzero"/></clipPath><clipPath id="47c19390ea"><path d="M 405.554688 180.789062 L 414.007812 180.789062 L 414.007812 185.800781 L 405.554688 185.800781 Z M 405.554688 180.789062 " clip-rule="nonzero"/></clipPath><clipPath id="5294450f8a"><path d="M 410.398438 182.25 C 413.476562 184.875 413.476562 185.324219 413.324219 185.476562 C 413.101562 185.699219 412.425781 185.773438 412.273438 185.625 C 412.199219 185.476562 413.023438 184.351562 413.101562 184.425781 C 413.25 184.425781 413.25 185.625 413.023438 185.699219 C 412.574219 185.925781 411.300781 184.5 410.25 184.125 C 408.976562 183.75 406.574219 184.199219 405.976562 183.601562 C 405.523438 183.226562 405.449219 182.324219 405.75 181.875 C 406.273438 181.199219 408.824219 180.523438 409.949219 180.898438 C 411 181.199219 412.351562 182.925781 412.351562 183.601562 C 412.273438 183.976562 411.601562 184.5 411.148438 184.5 C 410.550781 184.425781 409.351562 183.300781 408.976562 182.699219 C 408.824219 182.398438 408.75 181.875 408.898438 181.648438 C 409.199219 181.273438 410.175781 180.898438 410.925781 180.976562 C 411.824219 181.125 413.925781 182.25 414 182.851562 C 414.074219 183.148438 413.25 183.898438 413.023438 183.824219 C 412.875 183.75 412.574219 182.773438 412.726562 182.625 C 412.875 182.398438 413.925781 182.550781 414 182.773438 C 414.074219 183 413.550781 183.75 413.101562 183.824219 C 412.5 183.898438 410.625 182.101562 410.550781 182.175781 C 410.550781 182.25 412.351562 183.449219 412.5 183.898438 C 412.574219 184.199219 412.5 184.648438 412.351562 184.726562 C 412.125 184.875 411.449219 184.726562 411.074219 184.425781 C 410.625 184.050781 410.699219 182.851562 410.175781 182.550781 C 409.425781 182.175781 407.25 183.300781 406.726562 183 C 406.5 182.925781 406.351562 182.476562 406.5 182.324219 C 406.726562 181.949219 409.875 182.398438 411.074219 182.925781 C 412.050781 183.300781 413.175781 184.125 413.324219 184.648438 C 413.476562 185.023438 413.175781 185.625 413.023438 185.699219 C 412.800781 185.851562 412.351562 185.773438 412.273438 185.699219 C 412.199219 185.476562 412.949219 184.351562 413.101562 184.351562 C 413.25 184.425781 413.476562 185.101562 413.398438 185.324219 C 413.25 185.550781 412.875 185.773438 412.5 185.699219 C 411.675781 185.625 409.5 183.898438 409.199219 183.226562 C 409.050781 182.851562 409.199219 182.398438 409.351562 182.25 C 409.574219 182.023438 410.398438 182.25 410.398438 182.25 " clip-rule="nonzero"/></clipPath><clipPath id="3c58388ccc"><path d="M 408.828125 183.046875 L 410.277344 183.046875 L 410.277344 184.269531 L 408.828125 184.269531 Z M 408.828125 183.046875 " clip-rule="nonzero"/></clipPath><clipPath id="8e2738c3f0"><path d="M 410.25 183.449219 C 409.648438 184.5 409.050781 184.273438 408.898438 184.125 C 408.75 183.898438 408.898438 183.300781 409.050781 183.148438 C 409.273438 182.925781 410.101562 183.148438 410.101562 183.148438 " clip-rule="nonzero"/></clipPath><clipPath id="b00b13d0d2"><path d="M 409.277344 183.046875 L 410.726562 183.046875 L 410.726562 184.269531 L 409.277344 184.269531 Z M 409.277344 183.046875 " clip-rule="nonzero"/></clipPath><clipPath id="5fed72d02a"><path d="M 410.699219 183.449219 C 410.101562 184.5 409.5 184.273438 409.351562 184.125 C 409.199219 183.898438 409.351562 183.300781 409.5 183.148438 C 409.726562 182.925781 410.550781 183.148438 410.550781 183.148438 " clip-rule="nonzero"/></clipPath><clipPath id="913cb7409f"><path d="M 409.128906 183.5 L 410.578125 183.5 L 410.578125 184.71875 L 409.128906 184.71875 Z M 409.128906 183.5 " clip-rule="nonzero"/></clipPath><clipPath id="7ce0a99b09"><path d="M 410.550781 183.898438 C 409.949219 184.949219 409.351562 184.726562 409.199219 184.574219 C 409.050781 184.351562 409.199219 183.75 409.351562 183.601562 C 409.574219 183.375 410.398438 183.601562 410.398438 183.601562 " clip-rule="nonzero"/></clipPath><clipPath id="589e334a93"><path d="M 407.175781 183.5 L 408.625 183.5 L 408.625 184.71875 L 407.175781 184.71875 Z M 407.175781 183.5 " clip-rule="nonzero"/></clipPath><clipPath id="360f8ef36d"><path d="M 408.601562 183.898438 C 408 184.949219 407.398438 184.726562 407.25 184.574219 C 407.101562 184.351562 407.25 183.75 407.398438 183.601562 C 407.625 183.375 408.449219 183.601562 408.449219 183.601562 " clip-rule="nonzero"/></clipPath><clipPath id="0a1da1d906"><path d="M 408.527344 183.5 L 409.976562 183.5 L 409.976562 184.71875 L 408.527344 184.71875 Z M 408.527344 183.5 " clip-rule="nonzero"/></clipPath><clipPath id="f71b436bcf"><path d="M 409.949219 183.898438 C 409.351562 184.949219 408.75 184.726562 408.601562 184.574219 C 408.449219 184.351562 408.601562 183.75 408.75 183.601562 C 408.976562 183.375 409.800781 183.601562 409.800781 183.601562 " clip-rule="nonzero"/></clipPath><clipPath id="8c14f79c32"><path d="M 403.578125 180.902344 L 405 180.902344 L 405 182.179688 L 403.578125 182.179688 Z M 403.578125 180.902344 " clip-rule="nonzero"/></clipPath><clipPath id="e491c3c007"><path d="M 405 181.351562 C 404.398438 182.398438 403.800781 182.175781 403.648438 182.023438 C 403.5 181.800781 403.648438 181.199219 403.800781 180.976562 C 404.023438 180.824219 404.851562 181.050781 404.851562 181.050781 " clip-rule="nonzero"/></clipPath><clipPath id="069e82fd93"><path d="M 403.277344 181.847656 L 404.726562 181.847656 L 404.726562 183.070312 L 403.277344 183.070312 Z M 403.277344 181.847656 " clip-rule="nonzero"/></clipPath><clipPath id="9a583e0b18"><path d="M 404.699219 182.25 C 404.101562 183.300781 403.5 183.074219 403.351562 182.925781 C 403.199219 182.699219 403.351562 182.101562 403.5 181.949219 C 403.726562 181.726562 404.550781 181.949219 404.550781 181.949219 " clip-rule="nonzero"/></clipPath><clipPath id="1b76c0d313"><path d="M 404.777344 182.148438 L 406.226562 182.148438 L 406.226562 183.371094 L 404.777344 183.371094 Z M 404.777344 182.148438 " clip-rule="nonzero"/></clipPath><clipPath id="bc42c453e2"><path d="M 406.199219 182.550781 C 405.601562 183.601562 405 183.375 404.851562 183.226562 C 404.699219 183 404.851562 182.398438 405 182.25 C 405.226562 182.023438 406.050781 182.25 406.050781 182.25 " clip-rule="nonzero"/></clipPath><clipPath id="069cde8fee"><path d="M 407.925781 183.5 L 409.375 183.5 L 409.375 184.71875 L 407.925781 184.71875 Z M 407.925781 183.5 " clip-rule="nonzero"/></clipPath><clipPath id="c471775988"><path d="M 409.351562 183.898438 C 408.75 184.949219 408.148438 184.726562 408 184.574219 C 407.851562 184.351562 408 183.75 408.148438 183.601562 C 408.375 183.375 409.199219 183.601562 409.199219 183.601562 " clip-rule="nonzero"/></clipPath><clipPath id="fd12b57247"><path d="M 415.128906 185.296875 L 416.578125 185.296875 L 416.578125 186.519531 L 415.128906 186.519531 Z M 415.128906 185.296875 " clip-rule="nonzero"/></clipPath><clipPath id="2bcaba7274"><path d="M 416.550781 185.699219 C 415.949219 186.75 415.351562 186.523438 415.199219 186.375 C 415.050781 186.148438 415.199219 185.550781 415.351562 185.398438 C 415.574219 185.175781 416.398438 185.398438 416.398438 185.398438 " clip-rule="nonzero"/></clipPath><clipPath id="94b6d30707"><path d="M 414.34375 183.644531 L 418.152344 183.644531 L 418.152344 188.863281 L 414.34375 188.863281 Z M 414.34375 183.644531 " clip-rule="nonzero"/></clipPath><clipPath id="e316b0726a"><path d="M 416.25 185.324219 C 417.824219 186.824219 417.074219 187.425781 416.625 187.351562 C 415.949219 187.273438 414.375 185.25 414.375 184.574219 C 414.375 184.199219 414.898438 183.675781 415.199219 183.675781 C 415.574219 183.675781 415.949219 184.273438 416.324219 184.726562 C 416.851562 185.550781 418.351562 187.648438 418.125 188.25 C 417.976562 188.550781 416.851562 188.699219 416.699219 188.550781 C 416.550781 188.398438 416.773438 187.648438 417 187.5 C 417.226562 187.425781 418.125 187.949219 418.125 188.175781 C 418.125 188.398438 417.300781 188.925781 416.925781 188.851562 C 416.101562 188.625 414.226562 185.398438 414.375 184.574219 C 414.449219 184.125 415.050781 183.675781 415.425781 183.675781 C 415.875 183.824219 416.25 185.699219 416.699219 186.074219 C 417 186.226562 417.523438 186 417.675781 186.226562 C 417.824219 186.375 417.824219 186.976562 417.675781 187.199219 C 417.523438 187.351562 417.148438 187.425781 416.773438 187.351562 C 416.324219 187.273438 415.125 186.523438 415.125 186.148438 C 415.125 185.851562 416.25 185.324219 416.25 185.324219 " clip-rule="nonzero"/></clipPath><clipPath id="0d8b41db5e"><path d="M 415.542969 183.882812 L 418.285156 183.882812 L 418.285156 186.625 L 415.542969 186.625 Z M 415.542969 183.882812 " clip-rule="nonzero"/></clipPath><clipPath id="ba807f173c"><path d="M 417 186.601562 C 415.5 184.273438 416.398438 183.898438 416.625 184.050781 C 416.851562 184.125 416.851562 184.949219 416.699219 185.101562 C 416.550781 185.324219 415.726562 185.324219 415.574219 185.101562 C 415.5 184.949219 416.023438 183.898438 416.324219 183.898438 C 416.773438 183.824219 418.351562 185.625 418.273438 186.074219 C 418.199219 186.375 417 186.601562 417 186.601562 " clip-rule="nonzero"/></clipPath><clipPath id="f60d1e2c1c"><path d="M 415.503906 183.902344 L 416.953125 183.902344 L 416.953125 185.152344 L 415.503906 185.152344 Z M 415.503906 183.902344 " clip-rule="nonzero"/></clipPath><clipPath id="809e163b29"><path d="M 416.925781 184.351562 C 416.324219 185.398438 415.726562 185.175781 415.574219 184.949219 C 415.425781 184.800781 415.574219 184.125 415.726562 183.976562 C 415.949219 183.824219 416.773438 184.050781 416.773438 184.050781 " clip-rule="nonzero"/></clipPath><clipPath id="19c7a5e004"><path d="M 415.203125 183.753906 L 416.652344 183.753906 L 416.652344 184.945312 L 415.203125 184.945312 Z M 415.203125 183.753906 " clip-rule="nonzero"/></clipPath><clipPath id="b474af7aab"><path d="M 416.625 184.125 C 415.949219 185.175781 415.425781 184.949219 415.273438 184.800781 C 415.125 184.574219 415.273438 183.976562 415.425781 183.824219 C 415.648438 183.675781 416.398438 183.824219 416.398438 183.824219 " clip-rule="nonzero"/></clipPath><clipPath id="ba435e09c8"><path d="M 415.53125 183.675781 L 416.953125 183.675781 L 416.953125 184.925781 L 415.53125 184.925781 Z M 415.53125 183.675781 " clip-rule="nonzero"/></clipPath><clipPath id="60ac414144"><path d="M 416.925781 184.125 C 416.324219 185.175781 415.726562 184.949219 415.574219 184.726562 C 415.5 184.574219 415.574219 183.898438 415.800781 183.75 C 415.949219 183.601562 416.773438 183.824219 416.773438 183.824219 " clip-rule="nonzero"/></clipPath><clipPath id="ac2e84cd28"><path d="M 415.324219 183.421875 L 420.25 183.421875 L 420.25 194.042969 L 415.324219 194.042969 Z M 415.324219 183.421875 " clip-rule="nonzero"/></clipPath><clipPath id="48399e7566"><path d="M 417.375 187.425781 C 415.5 183.898438 416.023438 183.375 416.476562 183.449219 C 417.449219 183.675781 420.148438 188.476562 420.226562 190.351562 C 420.300781 191.699219 419.25 193.273438 418.648438 193.726562 C 418.351562 193.949219 417.75 194.101562 417.601562 193.949219 C 417.449219 193.800781 417.675781 192.675781 417.824219 192.601562 C 418.050781 192.523438 418.800781 193.5 418.726562 193.648438 C 418.648438 193.800781 417.449219 193.726562 417.300781 193.425781 C 417.074219 192.898438 418.726562 191.550781 418.726562 190.351562 C 418.648438 188.625 415.125 185.101562 415.351562 184.125 C 415.5 183.675781 416.101562 183.375 416.476562 183.449219 C 417.074219 183.601562 418.273438 185.699219 418.5 186.375 C 418.574219 186.824219 418.574219 187.199219 418.351562 187.425781 C 418.199219 187.574219 417.375 187.425781 417.375 187.425781 " clip-rule="nonzero"/></clipPath><clipPath id="854b7792c4"><path d="M 444.613281 181.785156 L 455.523438 181.785156 L 455.523438 187.214844 L 444.613281 187.214844 Z M 444.613281 181.785156 " clip-rule="nonzero"/></clipPath><clipPath id="ba17a0db4e"><path d="M 444.976562 185.773438 C 455.25 182.023438 455.324219 183 455.175781 183.226562 C 455.023438 183.300781 454.273438 183.148438 454.125 182.925781 C 454.050781 182.699219 454.273438 182.023438 454.5 181.875 C 454.648438 181.726562 455.25 181.875 455.398438 182.023438 C 455.550781 182.25 455.550781 182.773438 455.25 183.148438 C 454.351562 184.351562 447 187.273438 445.5 187.199219 C 445.050781 187.125 444.75 186.976562 444.675781 186.75 C 444.523438 186.449219 444.976562 185.773438 444.976562 185.773438 " clip-rule="nonzero"/></clipPath><clipPath id="2714a42c73"><path d="M 379.652344 260.402344 L 381.101562 260.402344 L 381.101562 261.652344 L 379.652344 261.652344 Z M 379.652344 260.402344 " clip-rule="nonzero"/></clipPath><clipPath id="51c0ac3681"><path d="M 381.074219 260.851562 C 380.476562 261.898438 379.875 261.675781 379.726562 261.449219 C 379.574219 261.300781 379.726562 260.625 379.949219 260.476562 C 380.101562 260.324219 380.925781 260.550781 380.925781 260.550781 " clip-rule="nonzero"/></clipPath><clipPath id="8f571c18d2"><path d="M 92 182 L 266 182 L 266 350.15625 L 92 350.15625 Z M 92 182 " clip-rule="nonzero"/></clipPath><clipPath id="ce3b643110"><path d="M 76 148 L 333 148 L 333 406 L 76 406 Z M 76 148 " clip-rule="nonzero"/></clipPath><clipPath id="bf3cea2644"><path d="M 70.882812 347.519531 L 275.402344 143 L 384.523438 252.121094 L 180.003906 456.640625 Z M 70.882812 347.519531 " clip-rule="nonzero"/></clipPath><clipPath id="622ee4515d"><path d="M 70.882812 347.519531 L 275.402344 143 L 384.523438 252.121094 L 180.003906 456.640625 Z M 70.882812 347.519531 " clip-rule="nonzero"/></clipPath></defs><rect x="-96" width="1152" fill="#ffffff" y="-60" height="719.999999" fill-opacity="1"/><rect x="-96" width="1152" fill="#f5f5fd" y="-60" height="719.999999" fill-opacity="1"/><g clip-path="url(#a373806a15)"><g clip-path="url(#61a48a51ce)"><path fill="#ffffff" d="M 400.875 176.25 L 411.007812 176.25 L 411.007812 186.074219 L 400.875 186.074219 Z M 400.875 176.25 " fill-opacity="1" fill-rule="nonzero"/></g></g><g clip-path="url(#073f0ec697)"><g clip-path="url(#9a8a47e396)"><path fill="#ffffff" d="M 400.199219 178.574219 L 407.617188 178.574219 L 407.617188 185.851562 L 400.199219 185.851562 Z M 400.199219 178.574219 " fill-opacity="1" fill-rule="nonzero"/></g></g><g clip-path="url(#bcd7f732fd)"><g clip-path="url(#807fd460ae)"><path fill="#ffffff" d="M 401.101562 179.25 L 408.515625 179.25 L 408.515625 186.523438 L 401.101562 186.523438 Z M 401.101562 179.25 " fill-opacity="1" fill-rule="nonzero"/></g></g><g clip-path="url(#7785b7de0a)"><g clip-path="url(#1eae7cc20e)"><path fill="#ffffff" d="M 402 179.851562 L 409.417969 179.851562 L 409.417969 187.125 L 402 187.125 Z M 402 179.851562 " fill-opacity="1" fill-rule="nonzero"/></g></g><g clip-path="url(#0973ef7901)"><g clip-path="url(#3c0b68fd04)"><path fill="#ffffff" d="M 402.601562 179.25 L 410.015625 179.25 L 410.015625 186.523438 L 402.601562 186.523438 Z M 402.601562 179.25 " fill-opacity="1" fill-rule="nonzero"/></g></g><g clip-path="url(#95175f456c)"><g clip-path="url(#4c16d7eb45)"><path fill="#ffffff" d="M 402.449219 178.949219 L 409.867188 178.949219 L 409.867188 186.226562 L 402.449219 186.226562 Z M 402.449219 178.949219 " fill-opacity="1" fill-rule="nonzero"/><path fill="#ffffff" d="M 402.449219 178.949219 L 409.867188 178.949219 L 409.867188 186.226562 L 402.449219 186.226562 Z M 402.449219 178.949219 " fill-opacity="1" fill-rule="nonzero"/></g></g><g clip-path="url(#b56adebb6d)"><g clip-path="url(#033a7c1098)"><path fill="#ffffff" d="M 402.898438 179.550781 L 410.316406 179.550781 L 410.316406 186.824219 L 402.898438 186.824219 Z M 402.898438 179.550781 " fill-opacity="1" fill-rule="nonzero"/></g></g><g clip-path="url(#47c19390ea)"><g clip-path="url(#5294450f8a)"><path fill="#ffffff" d="M 402.75 177.898438 L 416.980469 177.898438 L 416.980469 188.773438 L 402.75 188.773438 Z M 402.75 177.898438 " fill-opacity="1" fill-rule="nonzero"/></g></g><g clip-path="url(#3c58388ccc)"><g clip-path="url(#8e2738c3f0)"><path fill="#ffffff" d="M 405.898438 180.148438 L 413.316406 180.148438 L 413.316406 187.425781 L 405.898438 187.425781 Z M 405.898438 180.148438 " fill-opacity="1" fill-rule="nonzero"/></g></g><g clip-path="url(#b00b13d0d2)"><g clip-path="url(#5fed72d02a)"><path fill="#ffffff" d="M 406.351562 180.148438 L 413.765625 180.148438 L 413.765625 187.425781 L 406.351562 187.425781 Z M 406.351562 180.148438 " fill-opacity="1" fill-rule="nonzero"/></g></g><g clip-path="url(#913cb7409f)"><g clip-path="url(#7ce0a99b09)"><path fill="#ffffff" d="M 406.199219 180.601562 L 413.617188 180.601562 L 413.617188 187.875 L 406.199219 187.875 Z M 406.199219 180.601562 " fill-opacity="1" fill-rule="nonzero"/></g></g><g clip-path="url(#589e334a93)"><g clip-path="url(#360f8ef36d)"><path fill="#ffffff" d="M 404.25 180.601562 L 411.667969 180.601562 L 411.667969 187.875 L 404.25 187.875 Z M 404.25 180.601562 " fill-opacity="1" fill-rule="nonzero"/></g></g><g clip-path="url(#0a1da1d906)"><g clip-path="url(#f71b436bcf)"><path fill="#ffffff" d="M 405.601562 180.601562 L 413.015625 180.601562 L 413.015625 187.875 L 405.601562 187.875 Z M 405.601562 180.601562 " fill-opacity="1" fill-rule="nonzero"/></g></g><g clip-path="url(#8c14f79c32)"><g clip-path="url(#e491c3c007)"><path fill="#ffffff" d="M 400.648438 177.976562 L 408.066406 177.976562 L 408.066406 185.25 L 400.648438 185.25 Z M 400.648438 177.976562 " fill-opacity="1" fill-rule="nonzero"/></g></g><g clip-path="url(#069e82fd93)"><g clip-path="url(#9a583e0b18)"><path fill="#ffffff" d="M 400.351562 178.949219 L 407.765625 178.949219 L 407.765625 186.226562 L 400.351562 186.226562 Z M 400.351562 178.949219 " fill-opacity="1" fill-rule="nonzero"/></g></g><g clip-path="url(#1b76c0d313)"><g clip-path="url(#bc42c453e2)"><path fill="#ffffff" d="M 401.851562 179.25 L 409.265625 179.25 L 409.265625 186.523438 L 401.851562 186.523438 Z M 401.851562 179.25 " fill-opacity="1" fill-rule="nonzero"/></g></g><g clip-path="url(#069cde8fee)"><g clip-path="url(#c471775988)"><path fill="#ffffff" d="M 405 180.601562 L 412.417969 180.601562 L 412.417969 187.875 L 405 187.875 Z M 405 180.601562 " fill-opacity="1" fill-rule="nonzero"/></g></g><g clip-path="url(#fd12b57247)"><g clip-path="url(#2bcaba7274)"><path fill="#ffffff" d="M 412.199219 182.398438 L 419.617188 182.398438 L 419.617188 189.675781 L 412.199219 189.675781 Z M 412.199219 182.398438 " fill-opacity="1" fill-rule="nonzero"/></g></g><g clip-path="url(#94b6d30707)"><g clip-path="url(#e316b0726a)"><path fill="#ffffff" d="M 411.375 180.675781 L 421.125 180.675781 L 421.125 191.835938 L 411.375 191.835938 Z M 411.375 180.675781 " fill-opacity="1" fill-rule="nonzero"/></g></g><g clip-path="url(#0d8b41db5e)"><g clip-path="url(#ba807f173c)"><path fill="#ffffff" d="M 412.425781 180.898438 L 421.269531 180.898438 L 421.269531 189.675781 L 412.425781 189.675781 Z M 412.425781 180.898438 " fill-opacity="1" fill-rule="nonzero"/></g></g><g clip-path="url(#f60d1e2c1c)"><g clip-path="url(#809e163b29)"><path fill="#ffffff" d="M 412.574219 180.976562 L 419.992188 180.976562 L 419.992188 188.25 L 412.574219 188.25 Z M 412.574219 180.976562 " fill-opacity="1" fill-rule="nonzero"/></g></g><g clip-path="url(#19c7a5e004)"><g clip-path="url(#b474af7aab)"><path fill="#ffffff" d="M 412.273438 180.824219 L 419.691406 180.824219 L 419.691406 188.101562 L 412.273438 188.101562 Z M 412.273438 180.824219 " fill-opacity="1" fill-rule="nonzero"/></g></g><g clip-path="url(#ba435e09c8)"><g clip-path="url(#60ac414144)"><path fill="#ffffff" d="M 412.574219 180.75 L 419.992188 180.75 L 419.992188 188.023438 L 412.574219 188.023438 Z M 412.574219 180.75 " fill-opacity="1" fill-rule="nonzero"/></g></g><g clip-path="url(#ac2e84cd28)"><g clip-path="url(#48399e7566)"><path fill="#ffffff" d="M 412.351562 180.449219 L 423.226562 180.449219 L 423.226562 196.933594 L 412.351562 196.933594 Z M 412.351562 180.449219 " fill-opacity="1" fill-rule="nonzero"/></g></g><g clip-path="url(#854b7792c4)"><g clip-path="url(#ba17a0db4e)"><path fill="#ffffff" d="M 441.675781 178.800781 L 458.417969 178.800781 L 458.417969 190.199219 L 441.675781 190.199219 Z M 441.675781 178.800781 " fill-opacity="1" fill-rule="nonzero"/></g></g><g clip-path="url(#2714a42c73)"><g clip-path="url(#51c0ac3681)"><path fill="#ffffff" d="M 376.726562 257.476562 L 384.140625 257.476562 L 384.140625 264.75 L 376.726562 264.75 Z M 376.726562 257.476562 " fill-opacity="1" fill-rule="nonzero"/></g></g><g clip-path="url(#8f571c18d2)"><path fill="#2f4156" d="M 94.765625 350.109375 C 94.035156 350.109375 93.308594 349.804688 92.785156 349.210938 C 91.832031 348.117188 91.945312 346.457031 93.039062 345.503906 L 154.273438 292.023438 C 154.925781 291.457031 155.808594 291.242188 156.652344 291.457031 C 177.003906 296.675781 193.789062 295.121094 206.539062 286.832031 C 227.148438 273.4375 234.082031 244.882812 237.503906 224.574219 C 241.257812 202.339844 250.074219 194.109375 256.402344 191.074219 C 246.414062 186.605469 224.027344 181.3125 200.03125 207.039062 C 204.78125 214.425781 220.859375 242.960938 201.960938 265.085938 C 180.238281 290.535156 132.332031 269.449219 130.304688 268.535156 C 129.503906 268.179688 128.9375 267.445312 128.789062 266.582031 C 128.640625 265.71875 128.933594 264.839844 129.570312 264.234375 L 177.257812 219.023438 C 178.3125 218.027344 179.976562 218.070312 180.972656 219.121094 C 181.96875 220.175781 181.925781 221.835938 180.875 222.835938 L 136.15625 265.230469 C 147.507812 269.507812 182 280.375 197.96875 261.675781 C 217.066406 239.3125 194.816406 208.660156 194.585938 208.351562 C 193.847656 207.351562 193.914062 205.96875 194.742188 205.042969 C 230.199219 165.355469 264.566406 189.5625 264.914062 189.8125 C 265.851562 190.496094 266.230469 191.714844 265.847656 192.808594 C 265.464844 193.90625 264.394531 194.632812 263.246094 194.5625 C 262.59375 194.546875 247.886719 194.605469 242.6875 225.445312 C 239.097656 246.734375 231.742188 276.714844 209.402344 291.238281 C 195.660156 300.171875 177.929688 302.066406 156.695312 296.882812 L 96.492188 349.460938 C 95.996094 349.894531 95.378906 350.109375 94.765625 350.109375 Z M 94.765625 350.109375 " fill-opacity="1" fill-rule="nonzero"/></g><g clip-path="url(#ce3b643110)"><g clip-path="url(#bf3cea2644)"><g clip-path="url(#622ee4515d)"><path fill="#2d432c" d="M 261.691406 316.050781 C 272.761719 325.871094 283.621094 326.941406 291.664062 325.691406 C 309.445312 322.929688 323.027344 307.609375 323.144531 307.605469 C 323.121094 307.722656 312.253906 324.488281 294.140625 329.753906 C 284.382812 332.589844 270.90625 329.960938 258.859375 319.570312 C 247.828125 310.058594 238.507812 299.992188 238.035156 278.511719 C 237.800781 267.886719 241.492188 251.90625 257.246094 229.265625 C 266.183594 216.417969 272.332031 210.101562 275.945312 200.597656 C 279.601562 190.976562 281.308594 186.390625 275.949219 165.011719 C 273.785156 156.382812 271.601562 153.363281 269.984375 150.726562 C 269.277344 149.582031 269.878906 148.519531 271.730469 149.121094 C 278.585938 151.339844 288.71875 160.386719 294.207031 170.871094 C 294.738281 171.886719 294.65625 171.910156 295.59375 171.445312 C 297.472656 170.519531 299.457031 170.515625 301.28125 171.546875 C 304.277344 173.246094 310.253906 178.5625 313.472656 184.894531 C 318.042969 193.882812 317.289062 200.242188 317.070312 202.664062 C 317.023438 203.226562 317.289062 203.371094 317.847656 203.421875 C 321.273438 203.746094 325.59375 207.75 326.589844 212.003906 C 327.738281 216.886719 326.363281 223.996094 326.136719 225.101562 C 326.09375 225.320312 328.808594 225.503906 330.5625 229.027344 C 334.238281 236.398438 330.964844 242.828125 329.824219 245.394531 C 329.132812 246.945312 327.339844 249.449219 326.859375 250.078125 C 326.6875 250.308594 326.800781 250.339844 327.023438 250.480469 C 328.765625 251.574219 332.625 254.992188 332.929688 260.28125 C 333.101562 263.273438 331.796875 268.546875 328.925781 271.679688 C 317.851562 283.761719 302.554688 288.285156 302.375 288.242188 C 302.472656 288.03125 316.5625 280.0625 323.917969 272.914062 C 327.25 269.675781 332.578125 261.386719 328.542969 254.777344 C 327.664062 253.335938 325.765625 252.183594 325.25 252.269531 C 324.714844 252.363281 311.355469 265.28125 306.449219 266.902344 C 306.480469 266.761719 314.832031 259.371094 317.035156 257.210938 C 319.699219 254.597656 324.492188 250.292969 327.453125 243.671875 C 330.605469 236.625 329.921875 230.558594 326.214844 227.429688 C 325.574219 226.886719 324.769531 227.09375 324.316406 227.714844 C 322.460938 230.265625 317.191406 238.195312 314.199219 241.289062 C 311.335938 244.246094 305.917969 250.691406 305.800781 250.757812 C 305.746094 250.597656 307.65625 246.691406 311.867188 241.316406 C 314.3125 238.195312 320.5625 230.089844 323.460938 223.101562 C 326.035156 216.886719 324.839844 211.375 321.828125 208.105469 C 320.664062 206.839844 319.351562 205.761719 317.792969 205.007812 C 317.039062 204.640625 317.058594 204.675781 316.96875 205.496094 C 316.402344 210.765625 315.210938 215.042969 313.667969 219.378906 C 311.511719 225.441406 308.492188 231.171875 303.957031 235.902344 C 303.761719 236.105469 310.183594 227.863281 313.96875 206.617188 C 315.183594 199.785156 314.238281 192.582031 306.742188 181.277344 C 304.566406 177.988281 300.546875 174.253906 296.433594 174.511719 C 295.933594 174.542969 295.859375 174.933594 296.058594 175.390625 C 300.386719 185.308594 300.324219 192.6875 299.660156 198.183594 C 299.609375 198.597656 299.320312 190.921875 291.277344 172.59375 C 286.894531 162.601562 275.304688 153.671875 275.324219 153.714844 C 275.984375 154.9375 278.054688 159.363281 279.195312 162.210938 C 282.953125 171.570312 287.046875 184.863281 278.890625 203.808594 C 273.632812 216.023438 267.304688 223.1875 258.949219 236.152344 C 244.304688 258.878906 242.855469 271.429688 243.003906 280.734375 C 243.230469 295.074219 248.410156 304.273438 261.691406 316.050781 Z M 243.636719 334.105469 C 231.859375 320.824219 222.660156 315.644531 208.320312 315.417969 C 199.015625 315.269531 186.464844 316.71875 163.738281 331.363281 C 150.773438 339.71875 143.609375 346.046875 131.394531 351.304688 C 112.449219 359.460938 99.15625 355.367188 89.792969 351.609375 C 86.949219 350.46875 82.523438 348.398438 81.300781 347.738281 C 81.257812 347.71875 90.1875 359.308594 100.179688 363.691406 C 118.507812 371.734375 126.179688 372.023438 125.769531 372.074219 C 120.273438 372.738281 112.894531 372.800781 102.976562 368.472656 C 102.519531 368.273438 102.128906 368.347656 102.097656 368.851562 C 101.839844 372.960938 105.574219 376.980469 108.863281 379.160156 C 120.167969 386.652344 127.371094 387.597656 134.203125 386.382812 C 155.449219 382.597656 163.6875 376.175781 163.484375 376.371094 C 158.757812 380.90625 153.027344 383.925781 146.964844 386.082031 C 142.628906 387.625 138.351562 388.816406 133.082031 389.382812 C 132.261719 389.472656 132.226562 389.453125 132.59375 390.207031 C 133.347656 391.765625 134.425781 393.078125 135.691406 394.242188 C 138.960938 397.257812 144.472656 398.449219 150.6875 395.875 C 157.675781 392.976562 165.78125 386.726562 168.902344 384.28125 C 174.277344 380.070312 178.179688 378.160156 178.34375 378.214844 C 178.277344 378.332031 171.832031 383.75 168.875 386.613281 C 165.78125 389.605469 157.851562 394.875 155.300781 396.730469 C 154.679688 397.183594 154.472656 397.988281 155.015625 398.628906 C 158.144531 402.335938 164.207031 403.019531 171.257812 399.867188 C 177.878906 396.90625 182.183594 392.113281 184.796875 389.449219 C 186.957031 387.246094 194.347656 378.894531 194.488281 378.863281 C 192.867188 383.769531 179.949219 397.128906 179.855469 397.664062 C 179.769531 398.183594 180.921875 400.078125 182.363281 400.957031 C 188.972656 404.992188 197.261719 399.664062 200.5 396.332031 C 207.648438 388.976562 215.617188 374.886719 215.828125 374.789062 C 215.871094 374.96875 211.347656 390.265625 199.265625 401.339844 C 196.132812 404.210938 190.859375 405.515625 187.867188 405.34375 C 182.578125 405.042969 179.160156 401.179688 178.066406 399.4375 C 177.925781 399.21875 177.894531 399.101562 177.664062 399.277344 C 177.035156 399.753906 174.527344 401.546875 172.980469 402.238281 C 170.414062 403.378906 163.984375 406.652344 156.609375 402.976562 C 153.089844 401.222656 152.90625 398.507812 152.6875 398.550781 C 151.582031 398.777344 144.472656 400.152344 139.585938 399.003906 C 135.339844 398.007812 131.332031 393.691406 131.007812 390.261719 C 130.957031 389.707031 130.808594 389.4375 130.25 389.488281 C 127.828125 389.703125 121.46875 390.457031 112.480469 385.886719 C 106.148438 382.667969 100.832031 376.691406 99.132812 373.695312 C 98.097656 371.871094 98.105469 369.886719 99.03125 368.007812 C 99.496094 367.070312 99.472656 367.152344 98.457031 366.621094 C 87.96875 361.132812 78.925781 351 76.707031 344.144531 C 76.105469 342.296875 77.164062 341.695312 78.3125 342.398438 C 80.949219 344.015625 83.96875 346.199219 92.597656 348.363281 C 113.976562 353.722656 118.5625 352.015625 128.183594 348.359375 C 137.6875 344.746094 144.003906 338.597656 156.851562 329.660156 C 179.492188 313.90625 195.472656 310.214844 206.097656 310.449219 C 227.578125 310.921875 237.644531 320.242188 247.15625 331.273438 C 257.546875 343.320312 260.175781 356.796875 257.339844 366.554688 C 252.074219 384.667969 235.308594 395.535156 235.191406 395.558594 C 235.191406 395.441406 250.515625 381.859375 253.277344 364.078125 C 254.527344 356.035156 253.457031 345.175781 243.636719 334.105469 Z M 243.636719 334.105469 " fill-opacity="1" fill-rule="evenodd"/></g></g></g><g fill="#2f4156" fill-opacity="1"><g transform="translate(269.728656, 397.850012)"><g><path d="M 10.84375 -0.375 C 10.21875 -0.519531 9.53125 -0.710938 8.78125 -0.953125 C 8.03125 -1.191406 7.550781 -1.3125 7.34375 -1.3125 L 6.96875 -1.3125 C 6.238281 -1.3125 5.675781 -0.894531 5.28125 -0.0625 C 5.257812 -0.0195312 5.238281 0 5.21875 0 L 4.3125 0 C 4.1875 0 4.113281 -0.0507812 4.09375 -0.15625 L 1.40625 -9.375 C 1.300781 -9.8125 1.613281 -10.03125 2.34375 -10.03125 C 2.632812 -10.03125 2.832031 -9.972656 2.9375 -9.859375 C 3.039062 -9.742188 3.113281 -9.664062 3.15625 -9.625 C 3.195312 -9.582031 3.289062 -9.4375 3.4375 -9.1875 C 6.1875 -5.789062 10.21875 -4.09375 15.53125 -4.09375 C 18.320312 -4.09375 20.640625 -4.828125 22.484375 -6.296875 C 24.328125 -7.765625 25.25 -9.925781 25.25 -12.78125 C 25.25 -14.695312 24.941406 -16.128906 24.328125 -17.078125 C 23.710938 -18.023438 23.207031 -18.738281 22.8125 -19.21875 C 21.976562 -20.238281 19.984375 -21.644531 16.828125 -23.4375 C 13.671875 -25.226562 11.113281 -26.832031 9.15625 -28.25 C 4.15625 -31.851562 1.65625 -35.5625 1.65625 -39.375 C 1.65625 -43.1875 2.847656 -46.132812 5.234375 -48.21875 C 7.617188 -50.300781 10.78125 -51.34375 14.71875 -51.34375 C 16.925781 -51.34375 19.257812 -50.75 21.71875 -49.5625 C 22.882812 -49 23.738281 -48.625 24.28125 -48.4375 C 24.820312 -48.25 25.195312 -48.359375 25.40625 -48.765625 C 25.613281 -49.171875 25.738281 -49.375 25.78125 -49.375 C 26.71875 -49.476562 27.1875 -49.332031 27.1875 -48.9375 L 28.125 -38.90625 C 28.125 -38.71875 27.644531 -38.625 26.6875 -38.625 C 26.539062 -38.625 26.414062 -38.8125 26.3125 -39.1875 C 25.664062 -41.3125 24.15625 -43.078125 21.78125 -44.484375 C 19.40625 -45.890625 17.03125 -46.59375 14.65625 -46.59375 C 9.613281 -46.59375 7.09375 -44.507812 7.09375 -40.34375 C 7.09375 -37.320312 9.820312 -34.3125 15.28125 -31.3125 L 21.21875 -28.125 C 24.863281 -26.101562 27.421875 -23.921875 28.890625 -21.578125 C 30.359375 -19.234375 31.09375 -16.726562 31.09375 -14.0625 L 31.09375 -13.75 C 30.570312 -10.164062 29.945312 -7.726562 29.21875 -6.4375 C 28.007812 -4.3125 26.289062 -2.609375 24.0625 -1.328125 C 21.832031 -0.046875 19.300781 0.59375 16.46875 0.59375 C 14.90625 0.53125 13.625 0.375 12.625 0.125 Z M 10.84375 -0.375 "/></g></g></g><g fill="#2f4156" fill-opacity="1"><g transform="translate(302.00794, 397.850012)"><g><path d="M 4 -51.1875 L 14.125 -51.1875 C 14.394531 -51.1875 14.53125 -51.003906 14.53125 -50.640625 C 14.53125 -50.273438 14.484375 -50.054688 14.390625 -49.984375 C 14.296875 -49.910156 14.164062 -49.835938 14 -49.765625 C 13.832031 -49.691406 13.617188 -49.523438 13.359375 -49.265625 C 13.097656 -49.003906 12.820312 -48.523438 12.53125 -47.828125 C 12.238281 -47.128906 12.09375 -46.425781 12.09375 -45.71875 L 12.09375 -5.46875 C 12.09375 -3.945312 12.59375 -2.6875 13.59375 -1.6875 C 13.675781 -1.601562 13.851562 -1.5 14.125 -1.375 C 14.394531 -1.25 14.53125 -0.988281 14.53125 -0.59375 C 14.53125 -0.195312 14.394531 0 14.125 0 L 4 0 C 3.726562 0 3.59375 -0.179688 3.59375 -0.546875 C 3.59375 -0.910156 3.640625 -1.128906 3.734375 -1.203125 C 3.828125 -1.273438 3.957031 -1.347656 4.125 -1.421875 C 4.289062 -1.492188 4.503906 -1.660156 4.765625 -1.921875 C 5.023438 -2.179688 5.300781 -2.660156 5.59375 -3.359375 C 5.882812 -4.054688 6.03125 -4.757812 6.03125 -5.46875 L 6.03125 -45.71875 C 6.03125 -47.238281 5.53125 -48.5 4.53125 -49.5 C 4.445312 -49.582031 4.269531 -49.6875 4 -49.8125 C 3.726562 -49.9375 3.59375 -50.195312 3.59375 -50.59375 C 3.59375 -50.988281 3.726562 -51.1875 4 -51.1875 Z M 4 -51.1875 "/></g></g></g><g fill="#2f4156" fill-opacity="1"><g transform="translate(320.756795, 397.850012)"><g><path d="M 6.03125 -5.46875 L 6.03125 -45.71875 C 6.03125 -47.238281 5.53125 -48.5 4.53125 -49.5 C 4.445312 -49.582031 4.269531 -49.6875 4 -49.8125 C 3.726562 -49.9375 3.59375 -50.195312 3.59375 -50.59375 C 3.59375 -50.988281 3.726562 -51.1875 4 -51.1875 L 14.125 -51.1875 C 14.394531 -51.1875 14.53125 -51.003906 14.53125 -50.640625 C 14.53125 -50.273438 14.484375 -50.054688 14.390625 -49.984375 C 14.296875 -49.910156 14.164062 -49.835938 14 -49.765625 C 13.832031 -49.691406 13.617188 -49.523438 13.359375 -49.265625 C 13.097656 -49.003906 12.820312 -48.523438 12.53125 -47.828125 C 12.238281 -47.128906 12.09375 -46.425781 12.09375 -45.71875 L 12.09375 -5.0625 L 32.84375 -5.0625 C 35.195312 -5.0625 36.726562 -5.332031 37.4375 -5.875 C 37.8125 -6.125 38.101562 -6.40625 38.3125 -6.71875 C 38.519531 -7.03125 38.679688 -7.191406 38.796875 -7.203125 C 38.910156 -7.210938 39.117188 -7.164062 39.421875 -7.0625 C 39.722656 -6.957031 39.875 -6.863281 39.875 -6.78125 C 39.875 -6.695312 39.726562 -6.289062 39.4375 -5.5625 L 38.4375 -3.03125 C 38.0625 -2.09375 37.804688 -1.378906 37.671875 -0.890625 C 37.535156 -0.398438 37.351562 -0.101562 37.125 0 L 4 0 C 3.726562 0 3.59375 -0.179688 3.59375 -0.546875 C 3.59375 -0.910156 3.640625 -1.128906 3.734375 -1.203125 C 3.828125 -1.273438 3.957031 -1.347656 4.125 -1.421875 C 4.289062 -1.492188 4.503906 -1.660156 4.765625 -1.921875 C 5.023438 -2.179688 5.300781 -2.660156 5.59375 -3.359375 C 5.882812 -4.054688 6.03125 -4.757812 6.03125 -5.46875 Z M 6.03125 -5.46875 "/></g></g></g><g fill="#2f4156" fill-opacity="1"><g transform="translate(361.410567, 397.850012)"><g><path d="M 31.5 -30.625 C 33.019531 -30.625 34.28125 -31.125 35.28125 -32.125 C 35.363281 -32.207031 35.46875 -32.382812 35.59375 -32.65625 C 35.71875 -32.925781 35.976562 -33.0625 36.375 -33.0625 C 36.769531 -33.0625 36.96875 -32.925781 36.96875 -32.65625 L 36.96875 -23.59375 C 36.96875 -23.320312 36.785156 -23.1875 36.421875 -23.1875 C 36.054688 -23.1875 35.835938 -23.234375 35.765625 -23.328125 C 35.691406 -23.421875 35.617188 -23.550781 35.546875 -23.71875 C 35.472656 -23.882812 35.304688 -24.097656 35.046875 -24.359375 C 34.785156 -24.617188 34.304688 -24.882812 33.609375 -25.15625 C 32.910156 -25.425781 32.207031 -25.5625 31.5 -25.5625 L 11.78125 -25.5625 L 11.78125 -5.0625 L 32.53125 -5.0625 C 34.882812 -5.0625 36.328125 -5.265625 36.859375 -5.671875 C 37.390625 -6.078125 37.765625 -6.4375 37.984375 -6.75 C 38.203125 -7.0625 38.367188 -7.21875 38.484375 -7.21875 C 38.597656 -7.21875 38.804688 -7.164062 39.109375 -7.0625 C 39.410156 -6.957031 39.5625 -6.863281 39.5625 -6.78125 C 39.5625 -6.695312 39.414062 -6.289062 39.125 -5.5625 L 38.125 -3.03125 C 37.75 -2.070312 37.492188 -1.347656 37.359375 -0.859375 C 37.222656 -0.367188 37.039062 -0.0820312 36.8125 0 L 3.6875 0 C 3.414062 0 3.28125 -0.179688 3.28125 -0.546875 C 3.28125 -0.910156 3.328125 -1.128906 3.421875 -1.203125 C 3.515625 -1.273438 3.644531 -1.347656 3.8125 -1.421875 C 3.976562 -1.492188 4.191406 -1.660156 4.453125 -1.921875 C 4.710938 -2.179688 4.988281 -2.660156 5.28125 -3.359375 C 5.570312 -4.054688 5.71875 -4.757812 5.71875 -5.46875 L 5.71875 -45.71875 C 5.71875 -47.238281 5.21875 -48.5 4.21875 -49.5 C 4.132812 -49.582031 3.957031 -49.6875 3.6875 -49.8125 C 3.414062 -49.9375 3.28125 -50.195312 3.28125 -50.59375 C 3.28125 -50.988281 3.414062 -51.1875 3.6875 -51.1875 L 36.8125 -51.1875 C 37.019531 -51.1875 37.195312 -50.921875 37.34375 -50.390625 C 37.488281 -49.859375 37.75 -49.113281 38.125 -48.15625 L 39.125 -45.625 C 39.414062 -44.894531 39.5625 -44.488281 39.5625 -44.40625 C 39.5625 -44.320312 39.410156 -44.226562 39.109375 -44.125 C 38.804688 -44.019531 38.609375 -43.96875 38.515625 -43.96875 C 38.421875 -43.96875 38.320312 -44.023438 38.21875 -44.140625 C 38.113281 -44.253906 37.992188 -44.410156 37.859375 -44.609375 C 37.722656 -44.804688 37.390625 -45.109375 36.859375 -45.515625 C 36.328125 -45.921875 34.882812 -46.125 32.53125 -46.125 L 11.78125 -46.125 L 11.78125 -30.625 Z M 31.5 -30.625 "/></g></g></g><g fill="#2f4156" fill-opacity="1"><g transform="translate(403.408002, 397.850012)"><g><path d="M 11.78125 -51.1875 C 11.96875 -51.1875 12.144531 -51.101562 12.3125 -50.9375 L 47.25 -13.875 L 47.46875 -13.875 L 47.46875 -45.71875 C 47.46875 -47.21875 46.957031 -48.476562 45.9375 -49.5 C 45.851562 -49.582031 45.675781 -49.6875 45.40625 -49.8125 C 45.132812 -49.9375 45 -50.195312 45 -50.59375 C 45 -50.988281 45.132812 -51.1875 45.40625 -51.1875 L 55.625 -51.1875 C 55.894531 -51.1875 56.03125 -51.003906 56.03125 -50.640625 C 56.03125 -50.273438 55.984375 -50.054688 55.890625 -49.984375 C 55.796875 -49.910156 55.664062 -49.835938 55.5 -49.765625 C 55.332031 -49.691406 55.113281 -49.519531 54.84375 -49.25 C 54.570312 -48.976562 54.285156 -48.5 53.984375 -47.8125 C 53.679688 -47.125 53.53125 -46.425781 53.53125 -45.71875 L 53.53125 -1.65625 C 53.53125 -0.882812 53.429688 -0.414062 53.234375 -0.25 C 53.035156 -0.0820312 52.71875 0 52.28125 0 C 51.84375 0 51.488281 -0.125 51.21875 -0.375 L 11.9375 -42.0625 L 11.9375 -5.46875 C 11.9375 -3.863281 12.394531 -2.601562 13.3125 -1.6875 C 13.394531 -1.601562 13.570312 -1.5 13.84375 -1.375 C 14.113281 -1.25 14.25 -0.988281 14.25 -0.59375 C 14.25 -0.195312 14.113281 0 13.84375 0 L 3.78125 0 C 3.507812 0 3.375 -0.179688 3.375 -0.546875 C 3.375 -0.910156 3.421875 -1.128906 3.515625 -1.203125 C 3.609375 -1.273438 3.738281 -1.347656 3.90625 -1.421875 C 4.070312 -1.492188 4.207031 -1.582031 4.3125 -1.6875 C 5.351562 -2.726562 5.875 -3.988281 5.875 -5.46875 L 5.875 -45.71875 C 5.875 -47.257812 5.382812 -48.519531 4.40625 -49.5 C 4.320312 -49.582031 4.144531 -49.6875 3.875 -49.8125 C 3.601562 -49.9375 3.46875 -50.195312 3.46875 -50.59375 C 3.46875 -50.988281 3.601562 -51.1875 3.875 -51.1875 Z M 11.78125 -51.1875 "/></g></g></g><g fill="#2f4156" fill-opacity="1"><g transform="translate(463.435602, 397.850012)"><g><path d="M 28.84375 -3.5625 C 33.550781 -3.5625 37.765625 -4.625 41.484375 -6.75 C 45.203125 -8.875 48.257812 -11.726562 50.65625 -15.3125 C 50.925781 -15.75 51.128906 -15.882812 51.265625 -15.71875 C 51.398438 -15.550781 51.570312 -15.320312 51.78125 -15.03125 L 52.75 -13.625 C 53.0625 -13.101562 53.175781 -12.78125 53.09375 -12.65625 C 51.84375 -10.113281 49.75 -7.625 46.8125 -5.1875 C 41.375 -0.644531 35.382812 1.625 28.84375 1.625 C 25.050781 1.625 21.5 0.890625 18.1875 -0.578125 C 14.875 -2.046875 12.082031 -4.007812 9.8125 -6.46875 C 7.539062 -8.925781 5.753906 -11.804688 4.453125 -15.109375 C 3.148438 -18.410156 2.5 -21.832031 2.5 -25.375 C 2.5 -28.914062 3.203125 -32.304688 4.609375 -35.546875 C 6.015625 -38.785156 7.894531 -41.585938 10.25 -43.953125 C 12.601562 -46.316406 15.394531 -48.210938 18.625 -49.640625 C 21.851562 -51.066406 25.113281 -51.78125 28.40625 -51.78125 C 32.320312 -51.78125 36.269531 -51.019531 40.25 -49.5 L 41.6875 -48.96875 C 41.894531 -48.882812 42.1875 -48.96875 42.5625 -49.21875 C 42.9375 -49.46875 43.332031 -49.59375 43.75 -49.59375 C 44.164062 -49.59375 44.488281 -49.394531 44.71875 -49 C 44.800781 -48.9375 44.832031 -48.71875 44.8125 -48.34375 C 44.769531 -47.738281 45.019531 -46.351562 45.5625 -44.1875 L 46.34375 -40.75 C 46.550781 -39.851562 46.65625 -39.28125 46.65625 -39.03125 C 46.65625 -38.90625 46.390625 -38.710938 45.859375 -38.453125 C 45.328125 -38.191406 45.019531 -38.132812 44.9375 -38.28125 C 43.207031 -41.300781 41.035156 -43.382812 38.421875 -44.53125 C 35.804688 -45.675781 32.546875 -46.25 28.640625 -46.25 C 24.734375 -46.25 21.207031 -45.363281 18.0625 -43.59375 C 14.914062 -41.820312 12.488281 -39.359375 10.78125 -36.203125 C 9.070312 -33.046875 8.21875 -29.46875 8.21875 -25.46875 C 8.21875 -22.84375 8.820312 -20.191406 10.03125 -17.515625 C 11.238281 -14.835938 12.796875 -12.484375 14.703125 -10.453125 C 16.609375 -8.421875 18.820312 -6.765625 21.34375 -5.484375 C 23.863281 -4.203125 26.363281 -3.5625 28.84375 -3.5625 Z M 28.84375 -3.5625 "/></g></g></g><g fill="#2f4156" fill-opacity="1"><g transform="translate(518.650986, 397.850012)"><g><path d="M 31.5 -30.625 C 33.019531 -30.625 34.28125 -31.125 35.28125 -32.125 C 35.363281 -32.207031 35.46875 -32.382812 35.59375 -32.65625 C 35.71875 -32.925781 35.976562 -33.0625 36.375 -33.0625 C 36.769531 -33.0625 36.96875 -32.925781 36.96875 -32.65625 L 36.96875 -23.59375 C 36.96875 -23.320312 36.785156 -23.1875 36.421875 -23.1875 C 36.054688 -23.1875 35.835938 -23.234375 35.765625 -23.328125 C 35.691406 -23.421875 35.617188 -23.550781 35.546875 -23.71875 C 35.472656 -23.882812 35.304688 -24.097656 35.046875 -24.359375 C 34.785156 -24.617188 34.304688 -24.882812 33.609375 -25.15625 C 32.910156 -25.425781 32.207031 -25.5625 31.5 -25.5625 L 11.78125 -25.5625 L 11.78125 -5.0625 L 32.53125 -5.0625 C 34.882812 -5.0625 36.328125 -5.265625 36.859375 -5.671875 C 37.390625 -6.078125 37.765625 -6.4375 37.984375 -6.75 C 38.203125 -7.0625 38.367188 -7.21875 38.484375 -7.21875 C 38.597656 -7.21875 38.804688 -7.164062 39.109375 -7.0625 C 39.410156 -6.957031 39.5625 -6.863281 39.5625 -6.78125 C 39.5625 -6.695312 39.414062 -6.289062 39.125 -5.5625 L 38.125 -3.03125 C 37.75 -2.070312 37.492188 -1.347656 37.359375 -0.859375 C 37.222656 -0.367188 37.039062 -0.0820312 36.8125 0 L 3.6875 0 C 3.414062 0 3.28125 -0.179688 3.28125 -0.546875 C 3.28125 -0.910156 3.328125 -1.128906 3.421875 -1.203125 C 3.515625 -1.273438 3.644531 -1.347656 3.8125 -1.421875 C 3.976562 -1.492188 4.191406 -1.660156 4.453125 -1.921875 C 4.710938 -2.179688 4.988281 -2.660156 5.28125 -3.359375 C 5.570312 -4.054688 5.71875 -4.757812 5.71875 -5.46875 L 5.71875 -45.71875 C 5.71875 -47.238281 5.21875 -48.5 4.21875 -49.5 C 4.132812 -49.582031 3.957031 -49.6875 3.6875 -49.8125 C 3.414062 -49.9375 3.28125 -50.195312 3.28125 -50.59375 C 3.28125 -50.988281 3.414062 -51.1875 3.6875 -51.1875 L 36.8125 -51.1875 C 37.019531 -51.1875 37.195312 -50.921875 37.34375 -50.390625 C 37.488281 -49.859375 37.75 -49.113281 38.125 -48.15625 L 39.125 -45.625 C 39.414062 -44.894531 39.5625 -44.488281 39.5625 -44.40625 C 39.5625 -44.320312 39.410156 -44.226562 39.109375 -44.125 C 38.804688 -44.019531 38.609375 -43.96875 38.515625 -43.96875 C 38.421875 -43.96875 38.320312 -44.023438 38.21875 -44.140625 C 38.113281 -44.253906 37.992188 -44.410156 37.859375 -44.609375 C 37.722656 -44.804688 37.390625 -45.109375 36.859375 -45.515625 C 36.328125 -45.921875 34.882812 -46.125 32.53125 -46.125 L 11.78125 -46.125 L 11.78125 -30.625 Z M 31.5 -30.625 "/></g></g></g><g fill="#2f4156" fill-opacity="1"><g transform="translate(560.64842, 397.850012)"><g/></g></g><g fill="#2d432c" fill-opacity="1"><g transform="translate(576.654428, 397.850012)"><g><path d="M 27.0625 -10.3125 L 42.5 -45.625 C 43 -47.0625 42.675781 -48.351562 41.53125 -49.5 C 41.445312 -49.582031 41.269531 -49.6875 41 -49.8125 C 40.726562 -49.9375 40.59375 -50.195312 40.59375 -50.59375 C 40.59375 -50.988281 40.726562 -51.1875 41 -51.1875 L 50.84375 -51.1875 C 51.113281 -51.1875 51.25 -51.003906 51.25 -50.640625 C 51.25 -50.273438 51.203125 -50.054688 51.109375 -49.984375 C 51.015625 -49.910156 50.882812 -49.832031 50.71875 -49.75 C 50.03125 -49.4375 49.269531 -48.320312 48.4375 -46.40625 L 27.875 -0.375 C 27.769531 -0.125 27.257812 0 26.34375 0 C 25.425781 0 24.90625 -0.125 24.78125 -0.375 L 20.0625 -10.0625 L 11.875 -27.75 L 3.59375 -46.40625 C 2.78125 -48.300781 1.976562 -49.4375 1.1875 -49.8125 C 0.914062 -49.9375 0.78125 -50.195312 0.78125 -50.59375 C 0.78125 -50.988281 0.914062 -51.1875 1.1875 -51.1875 L 12.5 -51.1875 C 12.769531 -51.1875 12.90625 -51.003906 12.90625 -50.640625 C 12.90625 -50.273438 12.859375 -50.054688 12.765625 -49.984375 C 12.671875 -49.910156 12.539062 -49.835938 12.375 -49.765625 C 12.207031 -49.691406 12.070312 -49.601562 11.96875 -49.5 C 10.820312 -48.351562 10.5 -47.0625 11 -45.625 L 26.84375 -10.3125 Z M 27.0625 -10.3125 "/></g></g></g><g fill="#2d432c" fill-opacity="1"><g transform="translate(628.682506, 397.850012)"><g><path d="M 23.21875 -5.3125 C 25.257812 -4.5 27.257812 -4.09375 29.21875 -4.09375 C 35.882812 -4.09375 41.191406 -6.046875 45.140625 -9.953125 C 49.085938 -13.859375 51.0625 -19.101562 51.0625 -25.6875 C 51.0625 -27.957031 50.484375 -30.34375 49.328125 -32.84375 C 48.171875 -35.34375 46.625 -37.628906 44.6875 -39.703125 C 42.75 -41.773438 40.378906 -43.488281 37.578125 -44.84375 C 34.773438 -46.195312 31.601562 -46.875 28.0625 -46.875 C 24.519531 -46.875 21.175781 -45.976562 18.03125 -44.1875 C 14.882812 -42.394531 12.457031 -39.914062 10.75 -36.75 C 9.039062 -33.582031 8.1875 -29.910156 8.1875 -25.734375 C 8.1875 -21.554688 9.710938 -17.5 12.765625 -13.5625 C 15.816406 -9.625 19.300781 -6.875 23.21875 -5.3125 Z M 10.125 -6.796875 C 7.789062 -9.222656 5.9375 -12.109375 4.5625 -15.453125 C 3.1875 -18.796875 2.5 -22.253906 2.5 -25.828125 C 2.5 -29.398438 3.222656 -32.804688 4.671875 -36.046875 C 6.117188 -39.285156 8.035156 -42.085938 10.421875 -44.453125 C 12.804688 -46.816406 15.617188 -48.707031 18.859375 -50.125 C 22.097656 -51.539062 25.3125 -52.25 28.5 -52.25 C 31.6875 -52.25 34.664062 -51.832031 37.4375 -51 C 42.914062 -49.351562 47.484375 -46.285156 51.140625 -41.796875 C 54.796875 -37.304688 56.625 -32.03125 56.625 -25.96875 C 56.625 -22.40625 55.976562 -19 54.6875 -15.75 C 53.394531 -12.5 51.585938 -9.617188 49.265625 -7.109375 C 46.941406 -4.597656 44.015625 -2.59375 40.484375 -1.09375 C 36.953125 0.40625 33.226562 1.15625 29.3125 1.15625 C 25.394531 1.15625 21.800781 0.4375 18.53125 -1 C 15.257812 -2.4375 12.457031 -4.367188 10.125 -6.796875 Z M 10.125 -6.796875 "/></g></g></g><g fill="#2d432c" fill-opacity="1"><g transform="translate(687.803895, 397.850012)"><g><path d="M 4 -51.1875 L 14.125 -51.1875 C 14.394531 -51.1875 14.53125 -51.003906 14.53125 -50.640625 C 14.53125 -50.273438 14.484375 -50.054688 14.390625 -49.984375 C 14.296875 -49.910156 14.164062 -49.835938 14 -49.765625 C 13.832031 -49.691406 13.617188 -49.523438 13.359375 -49.265625 C 13.097656 -49.003906 12.820312 -48.523438 12.53125 -47.828125 C 12.238281 -47.128906 12.09375 -46.425781 12.09375 -45.71875 L 12.09375 -5.46875 C 12.09375 -3.945312 12.59375 -2.6875 13.59375 -1.6875 C 13.675781 -1.601562 13.851562 -1.5 14.125 -1.375 C 14.394531 -1.25 14.53125 -0.988281 14.53125 -0.59375 C 14.53125 -0.195312 14.394531 0 14.125 0 L 4 0 C 3.726562 0 3.59375 -0.179688 3.59375 -0.546875 C 3.59375 -0.910156 3.640625 -1.128906 3.734375 -1.203125 C 3.828125 -1.273438 3.957031 -1.347656 4.125 -1.421875 C 4.289062 -1.492188 4.503906 -1.660156 4.765625 -1.921875 C 5.023438 -2.179688 5.300781 -2.660156 5.59375 -3.359375 C 5.882812 -4.054688 6.03125 -4.757812 6.03125 -5.46875 L 6.03125 -45.71875 C 6.03125 -47.238281 5.53125 -48.5 4.53125 -49.5 C 4.445312 -49.582031 4.269531 -49.6875 4 -49.8125 C 3.726562 -49.9375 3.59375 -50.195312 3.59375 -50.59375 C 3.59375 -50.988281 3.726562 -51.1875 4 -51.1875 Z M 4 -51.1875 "/></g></g></g><g fill="#2d432c" fill-opacity="1"><g transform="translate(706.552749, 397.850012)"><g><path d="M 28.84375 -3.5625 C 33.550781 -3.5625 37.765625 -4.625 41.484375 -6.75 C 45.203125 -8.875 48.257812 -11.726562 50.65625 -15.3125 C 50.925781 -15.75 51.128906 -15.882812 51.265625 -15.71875 C 51.398438 -15.550781 51.570312 -15.320312 51.78125 -15.03125 L 52.75 -13.625 C 53.0625 -13.101562 53.175781 -12.78125 53.09375 -12.65625 C 51.84375 -10.113281 49.75 -7.625 46.8125 -5.1875 C 41.375 -0.644531 35.382812 1.625 28.84375 1.625 C 25.050781 1.625 21.5 0.890625 18.1875 -0.578125 C 14.875 -2.046875 12.082031 -4.007812 9.8125 -6.46875 C 7.539062 -8.925781 5.753906 -11.804688 4.453125 -15.109375 C 3.148438 -18.410156 2.5 -21.832031 2.5 -25.375 C 2.5 -28.914062 3.203125 -32.304688 4.609375 -35.546875 C 6.015625 -38.785156 7.894531 -41.585938 10.25 -43.953125 C 12.601562 -46.316406 15.394531 -48.210938 18.625 -49.640625 C 21.851562 -51.066406 25.113281 -51.78125 28.40625 -51.78125 C 32.320312 -51.78125 36.269531 -51.019531 40.25 -49.5 L 41.6875 -48.96875 C 41.894531 -48.882812 42.1875 -48.96875 42.5625 -49.21875 C 42.9375 -49.46875 43.332031 -49.59375 43.75 -49.59375 C 44.164062 -49.59375 44.488281 -49.394531 44.71875 -49 C 44.800781 -48.9375 44.832031 -48.71875 44.8125 -48.34375 C 44.769531 -47.738281 45.019531 -46.351562 45.5625 -44.1875 L 46.34375 -40.75 C 46.550781 -39.851562 46.65625 -39.28125 46.65625 -39.03125 C 46.65625 -38.90625 46.390625 -38.710938 45.859375 -38.453125 C 45.328125 -38.191406 45.019531 -38.132812 44.9375 -38.28125 C 43.207031 -41.300781 41.035156 -43.382812 38.421875 -44.53125 C 35.804688 -45.675781 32.546875 -46.25 28.640625 -46.25 C 24.734375 -46.25 21.207031 -45.363281 18.0625 -43.59375 C 14.914062 -41.820312 12.488281 -39.359375 10.78125 -36.203125 C 9.070312 -33.046875 8.21875 -29.46875 8.21875 -25.46875 C 8.21875 -22.84375 8.820312 -20.191406 10.03125 -17.515625 C 11.238281 -14.835938 12.796875 -12.484375 14.703125 -10.453125 C 16.609375 -8.421875 18.820312 -6.765625 21.34375 -5.484375 C 23.863281 -4.203125 26.363281 -3.5625 28.84375 -3.5625 Z M 28.84375 -3.5625 "/></g></g></g><g fill="#2d432c" fill-opacity="1"><g transform="translate(761.768133, 397.850012)"><g><path d="M 31.5 -30.625 C 33.019531 -30.625 34.28125 -31.125 35.28125 -32.125 C 35.363281 -32.207031 35.46875 -32.382812 35.59375 -32.65625 C 35.71875 -32.925781 35.976562 -33.0625 36.375 -33.0625 C 36.769531 -33.0625 36.96875 -32.925781 36.96875 -32.65625 L 36.96875 -23.59375 C 36.96875 -23.320312 36.785156 -23.1875 36.421875 -23.1875 C 36.054688 -23.1875 35.835938 -23.234375 35.765625 -23.328125 C 35.691406 -23.421875 35.617188 -23.550781 35.546875 -23.71875 C 35.472656 -23.882812 35.304688 -24.097656 35.046875 -24.359375 C 34.785156 -24.617188 34.304688 -24.882812 33.609375 -25.15625 C 32.910156 -25.425781 32.207031 -25.5625 31.5 -25.5625 L 11.78125 -25.5625 L 11.78125 -5.0625 L 32.53125 -5.0625 C 34.882812 -5.0625 36.328125 -5.265625 36.859375 -5.671875 C 37.390625 -6.078125 37.765625 -6.4375 37.984375 -6.75 C 38.203125 -7.0625 38.367188 -7.21875 38.484375 -7.21875 C 38.597656 -7.21875 38.804688 -7.164062 39.109375 -7.0625 C 39.410156 -6.957031 39.5625 -6.863281 39.5625 -6.78125 C 39.5625 -6.695312 39.414062 -6.289062 39.125 -5.5625 L 38.125 -3.03125 C 37.75 -2.070312 37.492188 -1.347656 37.359375 -0.859375 C 37.222656 -0.367188 37.039062 -0.0820312 36.8125 0 L 3.6875 0 C 3.414062 0 3.28125 -0.179688 3.28125 -0.546875 C 3.28125 -0.910156 3.328125 -1.128906 3.421875 -1.203125 C 3.515625 -1.273438 3.644531 -1.347656 3.8125 -1.421875 C 3.976562 -1.492188 4.191406 -1.660156 4.453125 -1.921875 C 4.710938 -2.179688 4.988281 -2.660156 5.28125 -3.359375 C 5.570312 -4.054688 5.71875 -4.757812 5.71875 -5.46875 L 5.71875 -45.71875 C 5.71875 -47.238281 5.21875 -48.5 4.21875 -49.5 C 4.132812 -49.582031 3.957031 -49.6875 3.6875 -49.8125 C 3.414062 -49.9375 3.28125 -50.195312 3.28125 -50.59375 C 3.28125 -50.988281 3.414062 -51.1875 3.6875 -51.1875 L 36.8125 -51.1875 C 37.019531 -51.1875 37.195312 -50.921875 37.34375 -50.390625 C 37.488281 -49.859375 37.75 -49.113281 38.125 -48.15625 L 39.125 -45.625 C 39.414062 -44.894531 39.5625 -44.488281 39.5625 -44.40625 C 39.5625 -44.320312 39.410156 -44.226562 39.109375 -44.125 C 38.804688 -44.019531 38.609375 -43.96875 38.515625 -43.96875 C 38.421875 -43.96875 38.320312 -44.023438 38.21875 -44.140625 C 38.113281 -44.253906 37.992188 -44.410156 37.859375 -44.609375 C 37.722656 -44.804688 37.390625 -45.109375 36.859375 -45.515625 C 36.328125 -45.921875 34.882812 -46.125 32.53125 -46.125 L 11.78125 -46.125 L 11.78125 -30.625 Z M 31.5 -30.625 "/></g></g></g></svg>