<svg xmlns="http://www.w3.org/2000/svg" xmlns:xlink="http://www.w3.org/1999/xlink" width="500" zoomAndPan="magnify" viewBox="0 0 375 374.999991" height="500" preserveAspectRatio="xMidYMid meet" version="1.0"><defs><g/><clipPath id="58d1e68331"><path d="M 98.386719 91.800781 L 276.613281 91.800781 L 276.613281 283.050781 L 98.386719 283.050781 Z M 98.386719 91.800781 " clip-rule="nonzero"/></clipPath><clipPath id="b0ba27c62c"><path d="M 155 134 L 206 134 L 206 167 L 155 167 Z M 155 134 " clip-rule="nonzero"/></clipPath><clipPath id="d4b65a55bd"><path d="M 153.742188 160.277344 L 156.808594 134.207031 L 205.96875 139.988281 L 202.90625 166.058594 Z M 153.742188 160.277344 " clip-rule="nonzero"/></clipPath><clipPath id="ef4d86e97b"><path d="M 152.261719 166.332031 L 159.355469 105.996094 L 209.261719 111.867188 L 202.167969 172.199219 Z M 152.261719 166.332031 " clip-rule="nonzero"/></clipPath><clipPath id="3e0e72316a"><path d="M 179.480469 134.613281 L 188.226562 134.613281 L 188.226562 139.886719 L 179.480469 139.886719 Z M 179.480469 134.613281 " clip-rule="nonzero"/></clipPath><clipPath id="19557ee150"><path d="M 182.175781 134.625 C 187.273438 136.125 187.875 136.5 188.101562 137.023438 C 188.25 137.625 187.875 138.976562 187.351562 139.351562 C 186.824219 139.800781 185.476562 139.726562 184.875 139.351562 C 184.425781 139.050781 184.050781 138.148438 184.125 137.625 C 184.199219 136.949219 185.101562 135.898438 185.773438 135.75 C 186.300781 135.601562 187.199219 135.898438 187.574219 136.273438 C 188.023438 136.648438 188.324219 137.550781 188.175781 138.074219 C 188.023438 138.75 187.199219 139.5 186.375 139.800781 C 185.175781 140.101562 182.398438 139.351562 181.199219 138.824219 C 180.449219 138.449219 179.925781 138 179.699219 137.476562 C 179.476562 137.023438 179.398438 136.425781 179.625 135.976562 C 180 135.375 182.175781 134.625 182.175781 134.625 " clip-rule="nonzero"/></clipPath><clipPath id="d65eed5465"><path d="M 176.351562 132.550781 L 180.613281 132.550781 L 180.613281 136.199219 L 176.351562 136.199219 Z M 176.351562 132.550781 " clip-rule="nonzero"/></clipPath><clipPath id="ab87ba6df0"><path d="M 180.601562 133.875 C 178.726562 136.875 176.925781 136.351562 176.550781 135.675781 C 176.175781 135.074219 176.476562 133.199219 177.074219 132.75 C 177.675781 132.300781 180.074219 132.898438 180.074219 132.898438 " clip-rule="nonzero"/></clipPath><clipPath id="1c7e903af1"><path d="M 175.640625 134.765625 L 179.863281 134.765625 L 179.863281 138.371094 L 175.640625 138.371094 Z M 175.640625 134.765625 " clip-rule="nonzero"/></clipPath><clipPath id="adbe646448"><path d="M 179.851562 136.050781 C 177.976562 139.050781 176.175781 138.523438 175.800781 137.851562 C 175.425781 137.25 175.800781 135.375 176.324219 134.925781 C 176.925781 134.476562 179.324219 135.148438 179.324219 135.148438 " clip-rule="nonzero"/></clipPath><clipPath id="dc18e3a29d"><path d="M 177.289062 134.765625 L 181.589844 134.765625 L 181.589844 138.371094 L 177.289062 138.371094 Z M 177.289062 134.765625 " clip-rule="nonzero"/></clipPath><clipPath id="7ae33a192c"><path d="M 181.574219 136.050781 C 179.625 139.050781 177.898438 138.523438 177.449219 137.851562 C 177.074219 137.25 177.449219 135.375 178.050781 134.925781 C 178.574219 134.476562 180.976562 135.148438 180.976562 135.148438 " clip-rule="nonzero"/></clipPath><clipPath id="a799817858"><path d="M 178.863281 135.25 L 183.085938 135.25 L 183.085938 138.898438 L 178.863281 138.898438 Z M 178.863281 135.25 " clip-rule="nonzero"/></clipPath><clipPath id="b7d038e4ca"><path d="M 183.074219 136.574219 C 181.199219 139.574219 179.398438 139.050781 179.023438 138.375 C 178.648438 137.773438 179.023438 135.898438 179.550781 135.449219 C 180.148438 135 182.550781 135.601562 182.550781 135.601562 " clip-rule="nonzero"/></clipPath><clipPath id="d5d41b04cf"><path d="M 179.875 135.703125 L 184.136719 135.703125 L 184.136719 139.347656 L 179.875 139.347656 Z M 179.875 135.703125 " clip-rule="nonzero"/></clipPath><clipPath id="c03add8503"><path d="M 184.125 136.949219 C 182.25 140.023438 180.449219 139.425781 180.074219 138.824219 C 179.699219 138.148438 180 136.351562 180.601562 135.898438 C 181.199219 135.449219 183.601562 136.050781 183.601562 136.050781 " clip-rule="nonzero"/></clipPath><clipPath id="d74f948724"><path d="M 186.441406 139.226562 L 190.738281 139.226562 L 190.738281 142.871094 L 186.441406 142.871094 Z M 186.441406 139.226562 " clip-rule="nonzero"/></clipPath><clipPath id="a289f99af0"><path d="M 190.726562 140.476562 C 188.773438 143.550781 187.050781 142.949219 186.601562 142.351562 C 186.226562 141.675781 186.601562 139.875 187.199219 139.425781 C 187.726562 138.976562 190.125 139.574219 190.125 139.574219 " clip-rule="nonzero"/></clipPath><clipPath id="89fe7e9881"><path d="M 186.214844 138.289062 L 190.511719 138.289062 L 190.511719 141.898438 L 186.214844 141.898438 Z M 186.214844 138.289062 " clip-rule="nonzero"/></clipPath><clipPath id="7e91b63d36"><path d="M 190.5 139.574219 C 188.625 142.574219 186.824219 142.050781 186.449219 141.375 C 186 140.773438 186.375 138.898438 186.976562 138.449219 C 187.574219 138 189.976562 138.675781 189.976562 138.675781 " clip-rule="nonzero"/></clipPath><clipPath id="fc42d10168"><path d="M 187.375 139.113281 L 191.636719 139.113281 L 191.636719 142.761719 L 187.375 142.761719 Z M 187.375 139.113281 " clip-rule="nonzero"/></clipPath><clipPath id="f968f3a7de"><path d="M 191.625 140.398438 C 189.75 143.398438 187.949219 142.875 187.574219 142.273438 C 187.199219 141.601562 187.5 139.800781 188.101562 139.273438 C 188.699219 138.824219 191.101562 139.5 191.101562 139.5 " clip-rule="nonzero"/></clipPath><clipPath id="9e88ba53b1"><path d="M 186.214844 138.175781 L 190.511719 138.175781 L 190.511719 141.824219 L 186.214844 141.824219 Z M 186.214844 138.175781 " clip-rule="nonzero"/></clipPath><clipPath id="0f4d60fa3e"><path d="M 190.5 139.5 C 188.625 142.5 186.824219 141.976562 186.449219 141.300781 C 186 140.699219 186.375 138.824219 186.976562 138.375 C 187.574219 137.925781 189.976562 138.523438 189.976562 138.523438 " clip-rule="nonzero"/></clipPath><clipPath id="ea52febe9c"><path d="M 186.4375 138.066406 L 190.738281 138.066406 L 190.738281 141.671875 L 186.4375 141.671875 Z M 186.4375 138.066406 " clip-rule="nonzero"/></clipPath><clipPath id="1dea77be83"><path d="M 190.726562 139.351562 C 188.773438 142.351562 187.050781 141.824219 186.675781 141.148438 C 186.226562 140.550781 186.601562 138.675781 187.199219 138.226562 C 187.800781 137.773438 190.125 138.449219 190.125 138.449219 " clip-rule="nonzero"/></clipPath><clipPath id="3d4a145997"><path d="M 199 134 L 250 134 L 250 166 L 199 166 Z M 199 134 " clip-rule="nonzero"/></clipPath><clipPath id="00509a09e2"><path d="M 201.515625 165.019531 L 199.039062 138.886719 L 248.320312 134.21875 L 250.796875 160.351562 Z M 201.515625 165.019531 " clip-rule="nonzero"/></clipPath><clipPath id="15fa2d52b6"><path d="M 252.277344 166.425781 L 246.550781 105.945312 L 196.523438 110.6875 L 202.253906 171.164062 Z M 252.277344 166.425781 " clip-rule="nonzero"/></clipPath><clipPath id="711f24937f"><path d="M 220.527344 134.015625 L 224.785156 134.015625 L 224.785156 137.621094 L 220.527344 137.621094 Z M 220.527344 134.015625 " clip-rule="nonzero"/></clipPath><clipPath id="eb84a7c3b6"><path d="M 224.773438 135.300781 C 222.898438 138.300781 221.101562 137.773438 220.726562 137.101562 C 220.351562 136.5 220.648438 134.625 221.25 134.175781 C 221.851562 133.726562 224.25 134.398438 224.25 134.398438 " clip-rule="nonzero"/></clipPath><clipPath id="cf36d92666"><path d="M 221 134.953125 L 225.238281 134.953125 L 225.238281 138.597656 L 221 138.597656 Z M 221 134.953125 " clip-rule="nonzero"/></clipPath><clipPath id="7b2915bd49"><path d="M 225.226562 136.199219 C 223.351562 139.273438 221.550781 138.675781 221.175781 138.074219 C 220.800781 137.398438 221.101562 135.601562 221.699219 135.148438 C 222.300781 134.699219 224.699219 135.300781 224.699219 135.300781 " clip-rule="nonzero"/></clipPath><clipPath id="9cd522d071"><path d="M 218.050781 135.851562 L 222.3125 135.851562 L 222.3125 139.496094 L 218.050781 139.496094 Z M 218.050781 135.851562 " clip-rule="nonzero"/></clipPath><clipPath id="035fcc8203"><path d="M 222.300781 137.175781 C 220.425781 140.175781 218.625 139.648438 218.25 138.976562 C 217.875 138.375 218.175781 136.5 218.773438 136.050781 C 219.375 135.601562 221.773438 136.199219 221.773438 136.199219 " clip-rule="nonzero"/></clipPath><clipPath id="eb2d9f5fac"><path d="M 223 134.316406 L 227.261719 134.316406 L 227.261719 137.960938 L 223 137.960938 Z M 223 134.316406 " clip-rule="nonzero"/></clipPath><clipPath id="963a219434"><path d="M 227.25 135.601562 C 225.300781 138.601562 223.574219 138.074219 223.199219 137.476562 C 222.75 136.800781 223.125 135 223.726562 134.476562 C 224.324219 134.023438 226.648438 134.699219 226.648438 134.699219 " clip-rule="nonzero"/></clipPath><clipPath id="29568438d1"><path d="M 224.203125 134.015625 L 228.460938 134.015625 L 228.460938 137.621094 L 224.203125 137.621094 Z M 224.203125 134.015625 " clip-rule="nonzero"/></clipPath><clipPath id="a29cd2afc7"><path d="M 228.449219 135.300781 C 226.574219 138.300781 224.773438 137.773438 224.398438 137.101562 C 224.023438 136.5 224.324219 134.625 224.925781 134.175781 C 225.523438 133.726562 227.925781 134.398438 227.925781 134.398438 " clip-rule="nonzero"/></clipPath><clipPath id="f2a1cc88f4"><path d="M 224.5 133.863281 L 228.761719 133.863281 L 228.761719 137.472656 L 224.5 137.472656 Z M 224.5 133.863281 " clip-rule="nonzero"/></clipPath><clipPath id="a80bcc19d1"><path d="M 228.75 135.148438 C 226.875 138.148438 225.074219 137.625 224.699219 136.949219 C 224.324219 136.351562 224.625 134.476562 225.226562 134.023438 C 225.824219 133.574219 228.226562 134.25 228.226562 134.25 " clip-rule="nonzero"/></clipPath><clipPath id="b9be848a14"><path d="M 225.589844 133.714844 L 229.886719 133.714844 L 229.886719 137.324219 L 225.589844 137.324219 Z M 225.589844 133.714844 " clip-rule="nonzero"/></clipPath><clipPath id="2979ded782"><path d="M 229.875 135 C 227.925781 138 226.199219 137.476562 225.824219 136.800781 C 225.375 136.199219 225.75 134.324219 226.351562 133.875 C 226.949219 133.425781 229.273438 134.101562 229.273438 134.101562 " clip-rule="nonzero"/></clipPath><clipPath id="cba41902cb"><path d="M 223.75 134.164062 L 228 134.164062 L 228 137.773438 L 223.75 137.773438 Z M 223.75 134.164062 " clip-rule="nonzero"/></clipPath><clipPath id="da67d70c0b"><path d="M 228 135.449219 C 226.125 138.449219 224.324219 137.925781 223.949219 137.25 C 223.574219 136.648438 223.875 134.773438 224.476562 134.324219 C 225.074219 133.875 227.476562 134.550781 227.476562 134.550781 " clip-rule="nonzero"/></clipPath><clipPath id="3370b50ef5"><path d="M 221.125 135.101562 L 225.386719 135.101562 L 225.386719 138.746094 L 221.125 138.746094 Z M 221.125 135.101562 " clip-rule="nonzero"/></clipPath><clipPath id="3ce5e67429"><path d="M 225.375 136.351562 C 223.5 139.425781 221.699219 138.824219 221.324219 138.226562 C 220.949219 137.550781 221.25 135.75 221.851562 135.300781 C 222.449219 134.851562 224.851562 135.449219 224.851562 135.449219 " clip-rule="nonzero"/></clipPath><clipPath id="3359d430fd"><path d="M 221.914062 134.953125 L 226.136719 134.953125 L 226.136719 138.597656 L 221.914062 138.597656 Z M 221.914062 134.953125 " clip-rule="nonzero"/></clipPath><clipPath id="832836e00d"><path d="M 226.125 136.199219 C 224.25 139.273438 222.449219 138.675781 222.074219 138.074219 C 221.699219 137.398438 222.074219 135.601562 222.601562 135.148438 C 223.199219 134.699219 225.601562 135.300781 225.601562 135.300781 " clip-rule="nonzero"/></clipPath><clipPath id="438121138f"><path d="M 224.5 134.015625 L 228.761719 134.015625 L 228.761719 137.621094 L 224.5 137.621094 Z M 224.5 134.015625 " clip-rule="nonzero"/></clipPath><clipPath id="8b1ef8045b"><path d="M 228.75 135.300781 C 226.875 138.300781 225.074219 137.773438 224.699219 137.101562 C 224.324219 136.5 224.625 134.625 225.226562 134.175781 C 225.824219 133.726562 228.226562 134.398438 228.226562 134.398438 " clip-rule="nonzero"/></clipPath><clipPath id="33560a04e1"><path d="M 223.453125 134.316406 L 227.710938 134.316406 L 227.710938 137.960938 L 223.453125 137.960938 Z M 223.453125 134.316406 " clip-rule="nonzero"/></clipPath><clipPath id="5c1b917bd5"><path d="M 227.699219 135.601562 C 225.824219 138.601562 224.023438 138.074219 223.648438 137.476562 C 223.273438 136.800781 223.574219 135 224.175781 134.476562 C 224.773438 134.023438 227.175781 134.699219 227.175781 134.699219 " clip-rule="nonzero"/></clipPath><clipPath id="1ee7078ebd"><path d="M 224.203125 134.015625 L 228.460938 134.015625 L 228.460938 137.621094 L 224.203125 137.621094 Z M 224.203125 134.015625 " clip-rule="nonzero"/></clipPath><clipPath id="a5a81b7e8f"><path d="M 228.449219 135.300781 C 226.574219 138.300781 224.773438 137.773438 224.398438 137.101562 C 224.023438 136.5 224.324219 134.625 224.925781 134.175781 C 225.523438 133.726562 227.925781 134.398438 227.925781 134.398438 " clip-rule="nonzero"/></clipPath><clipPath id="599448bc01"><path d="M 224.390625 134.125 L 228.6875 134.125 L 228.6875 137.773438 L 224.390625 137.773438 Z M 224.390625 134.125 " clip-rule="nonzero"/></clipPath><clipPath id="7df8cc4d61"><path d="M 228.675781 135.449219 C 226.726562 138.449219 224.925781 137.925781 224.550781 137.25 C 224.175781 136.648438 224.550781 134.773438 225.148438 134.324219 C 225.675781 133.875 228.074219 134.476562 228.074219 134.476562 " clip-rule="nonzero"/></clipPath><clipPath id="ba0e2c8f63"><path d="M 223.789062 134.125 L 228.089844 134.125 L 228.089844 137.773438 L 223.789062 137.773438 Z M 223.789062 134.125 " clip-rule="nonzero"/></clipPath><clipPath id="249a29add2"><path d="M 228.074219 135.449219 C 226.125 138.449219 224.324219 137.925781 223.949219 137.25 C 223.574219 136.648438 223.949219 134.773438 224.550781 134.324219 C 225.074219 133.875 227.476562 134.476562 227.476562 134.476562 " clip-rule="nonzero"/></clipPath><clipPath id="7c74c9853c"><path d="M 224.539062 134 L 228.839844 134 L 228.839844 137.621094 L 224.539062 137.621094 Z M 224.539062 134 " clip-rule="nonzero"/></clipPath><clipPath id="e722ddb3c1"><path d="M 228.824219 135.300781 C 226.875 138.300781 225.074219 137.773438 224.699219 137.101562 C 224.324219 136.5 224.699219 134.625 225.300781 134.175781 C 225.824219 133.726562 228.226562 134.324219 228.226562 134.324219 " clip-rule="nonzero"/></clipPath><clipPath id="200807ea94"><path d="M 224.238281 133.675781 L 228.539062 133.675781 L 228.539062 137.324219 L 224.238281 137.324219 Z M 224.238281 133.675781 " clip-rule="nonzero"/></clipPath><clipPath id="3637ddf80b"><path d="M 228.523438 135 C 226.574219 138 224.773438 137.476562 224.398438 136.800781 C 224.023438 136.199219 224.398438 134.324219 225 133.875 C 225.523438 133.425781 227.925781 134.023438 227.925781 134.023438 " clip-rule="nonzero"/></clipPath><clipPath id="8b743849ab"><path d="M 224.089844 134.125 L 228.386719 134.125 L 228.386719 137.773438 L 224.089844 137.773438 Z M 224.089844 134.125 " clip-rule="nonzero"/></clipPath><clipPath id="82e9470152"><path d="M 228.375 135.449219 C 226.425781 138.449219 224.625 137.925781 224.25 137.25 C 223.875 136.648438 224.25 134.773438 224.851562 134.324219 C 225.375 133.875 227.773438 134.476562 227.773438 134.476562 " clip-rule="nonzero"/></clipPath><clipPath id="6e4d46485f"><path d="M 224.238281 134.425781 L 228.539062 134.425781 L 228.539062 138.074219 L 224.238281 138.074219 Z M 224.238281 134.425781 " clip-rule="nonzero"/></clipPath><clipPath id="35cab75676"><path d="M 228.523438 135.75 C 226.574219 138.75 224.773438 138.226562 224.398438 137.550781 C 224.023438 136.949219 224.398438 135.074219 225 134.625 C 225.523438 134.175781 227.925781 134.773438 227.925781 134.773438 " clip-rule="nonzero"/></clipPath><clipPath id="cd651b3ed9"><path d="M 225.289062 134.125 L 229.589844 134.125 L 229.589844 137.773438 L 225.289062 137.773438 Z M 225.289062 134.125 " clip-rule="nonzero"/></clipPath><clipPath id="53c69cc7a8"><path d="M 229.574219 135.449219 C 227.625 138.449219 225.824219 137.925781 225.449219 137.25 C 225.074219 136.648438 225.449219 134.773438 226.050781 134.324219 C 226.574219 133.875 228.976562 134.476562 228.976562 134.476562 " clip-rule="nonzero"/></clipPath><clipPath id="132c6d6547"><path d="M 220.640625 135.328125 L 224.9375 135.328125 L 224.9375 138.972656 L 220.640625 138.972656 Z M 220.640625 135.328125 " clip-rule="nonzero"/></clipPath><clipPath id="8b3b42b59a"><path d="M 224.925781 136.648438 C 222.976562 139.648438 221.175781 139.125 220.800781 138.449219 C 220.425781 137.851562 220.800781 135.976562 221.398438 135.523438 C 221.925781 135.074219 224.324219 135.675781 224.324219 135.675781 " clip-rule="nonzero"/></clipPath><clipPath id="d477294023"><path d="M 221.390625 134.875 L 225.6875 134.875 L 225.6875 138.523438 L 221.390625 138.523438 Z M 221.390625 134.875 " clip-rule="nonzero"/></clipPath><clipPath id="13b983a12a"><path d="M 225.675781 136.199219 C 223.726562 139.199219 221.925781 138.675781 221.550781 138 C 221.175781 137.398438 221.550781 135.523438 222.148438 135.074219 C 222.675781 134.625 225.074219 135.226562 225.074219 135.226562 " clip-rule="nonzero"/></clipPath><clipPath id="4d91a6fa1a"><path d="M 221.238281 135.027344 L 225.539062 135.027344 L 225.539062 138.671875 L 221.238281 138.671875 Z M 221.238281 135.027344 " clip-rule="nonzero"/></clipPath><clipPath id="bef04aa3ce"><path d="M 225.523438 136.351562 C 223.574219 139.351562 221.773438 138.824219 221.398438 138.148438 C 221.023438 137.550781 221.398438 135.675781 222 135.226562 C 222.523438 134.773438 224.925781 135.375 224.925781 135.375 " clip-rule="nonzero"/></clipPath><clipPath id="f63e6818f2"><path d="M 221.089844 135.175781 L 225.386719 135.175781 L 225.386719 138.824219 L 221.089844 138.824219 Z M 221.089844 135.175781 " clip-rule="nonzero"/></clipPath><clipPath id="bfe711f0bf"><path d="M 225.375 136.5 C 223.425781 139.5 221.625 138.976562 221.25 138.300781 C 220.875 137.699219 221.25 135.824219 221.851562 135.375 C 222.375 134.925781 224.773438 135.523438 224.773438 135.523438 " clip-rule="nonzero"/></clipPath><clipPath id="145bd75679"><path d="M 221.089844 135.328125 L 225.386719 135.328125 L 225.386719 138.972656 L 221.089844 138.972656 Z M 221.089844 135.328125 " clip-rule="nonzero"/></clipPath><clipPath id="d3ff17832c"><path d="M 225.375 136.648438 C 223.425781 139.648438 221.625 139.125 221.25 138.449219 C 220.875 137.851562 221.25 135.976562 221.851562 135.523438 C 222.375 135.074219 224.773438 135.675781 224.773438 135.675781 " clip-rule="nonzero"/></clipPath><clipPath id="8f65885ca8"><path d="M 214.0625 137.113281 L 219.351562 137.113281 L 219.351562 142.097656 L 214.0625 142.097656 Z M 214.0625 137.113281 " clip-rule="nonzero"/></clipPath><clipPath id="9ca678c849"><path d="M 217.648438 137.773438 C 215.175781 142.648438 214.425781 142.199219 214.199219 141.898438 C 213.976562 141.523438 214.125 140.773438 214.351562 140.175781 C 214.648438 139.351562 216 137.25 216.449219 137.324219 C 216.675781 137.398438 216.898438 138.375 216.824219 138.976562 C 216.75 139.800781 216.148438 141.375 215.625 141.75 C 215.25 141.976562 214.5 141.976562 214.273438 141.75 C 214.050781 141.375 214.351562 140.175781 214.800781 139.5 C 215.324219 138.675781 216.898438 137.476562 217.726562 137.398438 C 218.324219 137.324219 219.074219 137.625 219.300781 138.074219 C 219.523438 138.675781 218.699219 140.324219 218.023438 140.925781 C 217.5 141.523438 216.300781 141.898438 215.773438 141.75 C 215.398438 141.675781 215.023438 141.226562 215.023438 140.925781 C 215.101562 140.175781 217.5 137.699219 218.175781 137.773438 C 218.550781 137.851562 219.074219 138.824219 219 138.976562 C 218.851562 139.125 217.875 139.050781 217.726562 138.824219 C 217.648438 138.601562 218.101562 137.773438 218.324219 137.773438 C 218.550781 137.699219 219.074219 138.449219 219 138.898438 C 218.925781 139.648438 216.976562 141.300781 216.226562 141.601562 C 215.851562 141.75 215.476562 141.75 215.25 141.523438 C 215.101562 141.375 215.023438 140.925781 215.175781 140.550781 C 215.476562 139.949219 218.324219 138.675781 218.324219 138.675781 C 218.324219 138.675781 217.050781 139.273438 216.523438 139.726562 C 216 140.324219 215.851562 141.824219 215.398438 141.976562 C 215.023438 142.125 214.351562 141.75 214.199219 141.375 C 213.976562 140.699219 215.25 138.148438 216 137.550781 C 216.449219 137.175781 217.425781 137.023438 217.648438 137.25 C 217.800781 137.398438 217.574219 138 217.351562 138.449219 C 217.050781 139.273438 216 141.074219 215.398438 141.375 C 215.023438 141.523438 214.648438 141.523438 214.5 141.375 C 214.199219 140.925781 215.625 137.550781 216.375 137.25 C 216.75 137.101562 217.648438 137.773438 217.648438 137.773438 " clip-rule="nonzero"/></clipPath><clipPath id="2784a56305"><path d="M 213.628906 140.101562 L 215.109375 140.101562 L 215.109375 141.324219 L 213.628906 141.324219 Z M 213.628906 140.101562 " clip-rule="nonzero"/></clipPath><clipPath id="4c04a1cb6c"><path d="M 215.101562 140.550781 C 214.425781 141.523438 213.824219 141.375 213.675781 141.148438 C 213.601562 140.925781 213.675781 140.324219 213.898438 140.175781 C 214.050781 140.023438 214.875 140.175781 214.875 140.175781 " clip-rule="nonzero"/></clipPath><clipPath id="8fb8df71cd"><path d="M 214.082031 139.050781 L 215.558594 139.050781 L 215.558594 140.273438 L 214.082031 140.273438 Z M 214.082031 139.050781 " clip-rule="nonzero"/></clipPath><clipPath id="708ffb75ef"><path d="M 215.550781 139.5 C 214.875 140.476562 214.273438 140.324219 214.125 140.101562 C 214.050781 139.875 214.125 139.273438 214.351562 139.125 C 214.5 138.976562 215.324219 139.125 215.324219 139.125 " clip-rule="nonzero"/></clipPath><clipPath id="8822bddc33"><path d="M 213.628906 139.503906 L 215.109375 139.503906 L 215.109375 140.722656 L 213.628906 140.722656 Z M 213.628906 139.503906 " clip-rule="nonzero"/></clipPath><clipPath id="e45b2e46bc"><path d="M 215.101562 139.949219 C 214.425781 140.925781 213.824219 140.773438 213.675781 140.550781 C 213.601562 140.324219 213.675781 139.726562 213.898438 139.574219 C 214.050781 139.425781 214.875 139.574219 214.875 139.574219 " clip-rule="nonzero"/></clipPath><clipPath id="836ea3c551"><path d="M 214.378906 138.902344 L 215.859375 138.902344 L 215.859375 140.125 L 214.378906 140.125 Z M 214.378906 138.902344 " clip-rule="nonzero"/></clipPath><clipPath id="2979435b97"><path d="M 215.851562 139.351562 C 215.175781 140.324219 214.574219 140.175781 214.425781 139.949219 C 214.351562 139.726562 214.425781 139.125 214.648438 138.976562 C 214.800781 138.824219 215.625 138.976562 215.625 138.976562 " clip-rule="nonzero"/></clipPath><clipPath id="9311400230"><path d="M 214.832031 138.453125 L 216.308594 138.453125 L 216.308594 139.675781 L 214.832031 139.675781 Z M 214.832031 138.453125 " clip-rule="nonzero"/></clipPath><clipPath id="364875a7c4"><path d="M 216.300781 138.898438 C 215.625 139.875 215.023438 139.726562 214.875 139.5 C 214.800781 139.273438 214.875 138.675781 215.101562 138.523438 C 215.25 138.375 216.074219 138.523438 216.074219 138.523438 " clip-rule="nonzero"/></clipPath><clipPath id="a59c561b53"><path d="M 214.261719 138.4375 L 217.214844 138.4375 L 217.214844 142.691406 L 214.261719 142.691406 Z M 214.261719 138.4375 " clip-rule="nonzero"/></clipPath><clipPath id="06be311077"><path d="M 214.273438 141.675781 C 216.449219 138.375 217.199219 139.199219 217.125 139.425781 C 217.125 139.574219 216.300781 139.875 216.074219 139.726562 C 215.925781 139.648438 215.773438 138.675781 215.925781 138.523438 C 216.148438 138.375 217.199219 138.824219 217.199219 139.050781 C 217.199219 139.273438 216.375 139.875 216.148438 139.800781 C 216 139.726562 215.851562 138.601562 216.074219 138.449219 C 216.226562 138.375 217.050781 138.75 217.199219 139.125 C 217.351562 139.726562 216.148438 141.675781 215.625 142.199219 C 215.324219 142.5 214.949219 142.726562 214.726562 142.648438 C 214.5 142.574219 214.273438 141.675781 214.273438 141.675781 " clip-rule="nonzero"/></clipPath><clipPath id="b008278988"><path d="M 214.53125 138.601562 L 216 138.601562 L 216 139.824219 L 214.53125 139.824219 Z M 214.53125 138.601562 " clip-rule="nonzero"/></clipPath><clipPath id="b2cd2b021e"><path d="M 216 139.050781 C 215.324219 140.023438 214.726562 139.875 214.574219 139.648438 C 214.5 139.425781 214.574219 138.824219 214.800781 138.675781 C 214.949219 138.523438 215.773438 138.675781 215.773438 138.675781 " clip-rule="nonzero"/></clipPath><clipPath id="3894a68205"><path d="M 106 185 L 145 185 L 145 295 L 106 295 Z M 106 185 " clip-rule="nonzero"/></clipPath><clipPath id="adaeca636c"><path d="M 105.050781 293.589844 L 145.183594 175.738281 L 183.519531 188.792969 L 143.390625 306.644531 Z M 105.050781 293.589844 " clip-rule="nonzero"/></clipPath><clipPath id="bdd08660fd"><path d="M 105.050781 293.589844 L 145.183594 175.738281 L 183.519531 188.792969 L 143.390625 306.644531 Z M 105.050781 293.589844 " clip-rule="nonzero"/></clipPath><clipPath id="f1df88b010"><path d="M 116 180 L 152 180 L 152 281 L 116 281 Z M 116 180 " clip-rule="nonzero"/></clipPath><clipPath id="0eeceaccea"><path d="M 105.050781 293.589844 L 145.183594 175.738281 L 183.519531 188.792969 L 143.390625 306.644531 Z M 105.050781 293.589844 " clip-rule="nonzero"/></clipPath><clipPath id="c71e4e87de"><path d="M 105.050781 293.589844 L 145.183594 175.738281 L 183.519531 188.792969 L 143.390625 306.644531 Z M 105.050781 293.589844 " clip-rule="nonzero"/></clipPath><clipPath id="7e41de379e"><path d="M 122 185 L 155 185 L 155 276 L 122 276 Z M 122 185 " clip-rule="nonzero"/></clipPath><clipPath id="b87f4914f0"><path d="M 105.050781 293.589844 L 145.183594 175.738281 L 183.519531 188.792969 L 143.390625 306.644531 Z M 105.050781 293.589844 " clip-rule="nonzero"/></clipPath><clipPath id="ed0eacb2c3"><path d="M 105.050781 293.589844 L 145.183594 175.738281 L 183.519531 188.792969 L 143.390625 306.644531 Z M 105.050781 293.589844 " clip-rule="nonzero"/></clipPath><clipPath id="f709189cfe"><path d="M 131 180 L 162 180 L 162 265 L 131 265 Z M 131 180 " clip-rule="nonzero"/></clipPath><clipPath id="adf3b1bc9b"><path d="M 105.050781 293.589844 L 145.183594 175.738281 L 183.519531 188.792969 L 143.390625 306.644531 Z M 105.050781 293.589844 " clip-rule="nonzero"/></clipPath><clipPath id="dec14983f8"><path d="M 105.050781 293.589844 L 145.183594 175.738281 L 183.519531 188.792969 L 143.390625 306.644531 Z M 105.050781 293.589844 " clip-rule="nonzero"/></clipPath><clipPath id="d627ee2a92"><path d="M 130.160156 263.761719 L 158.554688 180.378906 L 161.15625 181.265625 L 132.765625 264.648438 Z M 130.160156 263.761719 " clip-rule="nonzero"/></clipPath><clipPath id="e8fb6179f4"><path d="M 134 193 L 162 193 L 162 271 L 134 271 Z M 134 193 " clip-rule="nonzero"/></clipPath><clipPath id="a1299d00c5"><path d="M 105.050781 293.589844 L 145.183594 175.738281 L 183.519531 188.792969 L 143.390625 306.644531 Z M 105.050781 293.589844 " clip-rule="nonzero"/></clipPath><clipPath id="7dbd14302c"><path d="M 105.050781 293.589844 L 145.183594 175.738281 L 183.519531 188.792969 L 143.390625 306.644531 Z M 105.050781 293.589844 " clip-rule="nonzero"/></clipPath><clipPath id="e19b75482c"><path d="M 166 193 L 182 193 L 182 235 L 166 235 Z M 166 193 " clip-rule="nonzero"/></clipPath><clipPath id="82c310d8cd"><path d="M 105.050781 293.589844 L 145.183594 175.738281 L 183.519531 188.792969 L 143.390625 306.644531 Z M 105.050781 293.589844 " clip-rule="nonzero"/></clipPath><clipPath id="a169ef95a7"><path d="M 105.050781 293.589844 L 145.183594 175.738281 L 183.519531 188.792969 L 143.390625 306.644531 Z M 105.050781 293.589844 " clip-rule="nonzero"/></clipPath><clipPath id="f08385ae1b"><path d="M 159 193 L 177 193 L 177 242 L 159 242 Z M 159 193 " clip-rule="nonzero"/></clipPath><clipPath id="95a3059a03"><path d="M 105.050781 293.589844 L 145.183594 175.738281 L 183.519531 188.792969 L 143.390625 306.644531 Z M 105.050781 293.589844 " clip-rule="nonzero"/></clipPath><clipPath id="f4d6a7b441"><path d="M 105.050781 293.589844 L 145.183594 175.738281 L 183.519531 188.792969 L 143.390625 306.644531 Z M 105.050781 293.589844 " clip-rule="nonzero"/></clipPath><clipPath id="5d769240a5"><path d="M 152 188 L 174 188 L 174 248 L 152 248 Z M 152 188 " clip-rule="nonzero"/></clipPath><clipPath id="93f77c4929"><path d="M 105.050781 293.589844 L 145.183594 175.738281 L 183.519531 188.792969 L 143.390625 306.644531 Z M 105.050781 293.589844 " clip-rule="nonzero"/></clipPath><clipPath id="2fa9bde312"><path d="M 105.050781 293.589844 L 145.183594 175.738281 L 183.519531 188.792969 L 143.390625 306.644531 Z M 105.050781 293.589844 " clip-rule="nonzero"/></clipPath><clipPath id="2a9f94b99b"><path d="M 144 188 L 169 188 L 169 257 L 144 257 Z M 144 188 " clip-rule="nonzero"/></clipPath><clipPath id="d490c9043b"><path d="M 105.050781 293.589844 L 145.183594 175.738281 L 183.519531 188.792969 L 143.390625 306.644531 Z M 105.050781 293.589844 " clip-rule="nonzero"/></clipPath><clipPath id="a36adc31a2"><path d="M 105.050781 293.589844 L 145.183594 175.738281 L 183.519531 188.792969 L 143.390625 306.644531 Z M 105.050781 293.589844 " clip-rule="nonzero"/></clipPath><clipPath id="3d40c42f61"><path d="M 208 268 L 243 268 L 243 292 L 208 292 Z M 208 268 " clip-rule="nonzero"/></clipPath><clipPath id="aef2b74dc7"><path d="M 246.230469 277.957031 L 230.890625 301.976562 L 204.34375 285.019531 L 219.683594 261 Z M 246.230469 277.957031 " clip-rule="nonzero"/></clipPath><clipPath id="ee24c84064"><path d="M 246.230469 277.957031 L 230.890625 301.976562 L 204.34375 285.019531 L 219.683594 261 Z M 246.230469 277.957031 " clip-rule="nonzero"/></clipPath><clipPath id="fcbbf3dc94"><path d="M 167 268 L 203 268 L 203 292 L 167 292 Z M 167 268 " clip-rule="nonzero"/></clipPath><clipPath id="8ce4871bbd"><path d="M 206.097656 279.9375 L 188.5625 302.402344 L 163.730469 283.023438 L 181.265625 260.554688 Z M 206.097656 279.9375 " clip-rule="nonzero"/></clipPath><clipPath id="91c45d81f0"><path d="M 206.097656 279.9375 L 188.5625 302.402344 L 163.730469 283.023438 L 181.265625 260.554688 Z M 206.097656 279.9375 " clip-rule="nonzero"/></clipPath><clipPath id="1fc6a55110"><path d="M 188.945312 135.796875 L 196 135.796875 L 196 142.800781 L 188.945312 142.800781 Z M 188.945312 135.796875 " clip-rule="nonzero"/></clipPath><clipPath id="e7777cb115"><path d="M 191.925781 139.875 C 189.375 136.800781 189.824219 136.726562 190.199219 136.800781 C 191.324219 137.023438 195.976562 140.699219 195.898438 141.523438 C 195.898438 141.824219 195.449219 142.125 195.074219 142.125 C 194.101562 142.125 191.25 140.023438 190.351562 138.898438 C 189.75 138.148438 189.375 137.175781 189.449219 136.648438 C 189.523438 136.351562 189.898438 135.898438 190.273438 135.898438 C 191.023438 135.976562 193.800781 139.648438 193.726562 140.625 C 193.726562 141.074219 192.976562 141.675781 192.824219 141.601562 C 192.601562 141.523438 192.523438 140.324219 192.675781 140.25 C 192.824219 140.175781 193.800781 140.851562 193.800781 141 C 193.726562 141.226562 192.898438 141.523438 192.449219 141.375 C 191.625 141.074219 190.199219 138.523438 189.75 137.550781 C 189.523438 137.101562 189.375 136.574219 189.523438 136.351562 C 189.675781 136.050781 190.199219 135.824219 190.425781 135.898438 C 190.800781 136.050781 190.648438 137.101562 191.175781 137.699219 C 192 138.675781 195.449219 139.800781 195.898438 140.925781 C 196.125 141.523438 195.898438 142.574219 195.675781 142.726562 C 195.375 142.875 195 142.425781 194.476562 142.050781 C 193.273438 141.226562 189.449219 138.75 189.074219 137.476562 C 188.851562 136.875 189.074219 135.898438 189.375 135.824219 C 189.976562 135.601562 192.824219 138.226562 193.125 139.050781 C 193.199219 139.425781 193.050781 139.875 192.898438 140.023438 C 192.675781 140.175781 191.925781 139.875 191.925781 139.875 " clip-rule="nonzero"/></clipPath><clipPath id="7b378ea71f"><path d="M 210.453125 133.941406 L 216.5625 133.941406 L 216.5625 141.164062 L 210.453125 141.164062 Z M 210.453125 133.941406 " clip-rule="nonzero"/></clipPath><clipPath id="5ee14cd48c"><path d="M 211.800781 138.601562 C 214.574219 135.898438 215.175781 136.351562 215.175781 136.800781 C 215.25 137.625 211.351562 141.375 210.75 141.148438 C 210.375 141 210.449219 139.648438 210.675781 138.75 C 210.976562 137.550781 212.175781 135.074219 212.925781 134.398438 C 213.300781 134.101562 213.75 133.875 213.976562 134.023438 C 214.351562 134.175781 214.574219 135 214.574219 135.675781 C 214.5 136.875 213.375 139.875 212.699219 140.476562 C 212.398438 140.699219 211.875 140.851562 211.726562 140.699219 C 211.5 140.398438 211.949219 138.824219 212.398438 138 C 213 136.949219 214.726562 135 215.476562 135 C 215.925781 135 216.601562 135.824219 216.523438 135.976562 C 216.449219 136.199219 215.476562 136.273438 215.25 136.125 C 215.101562 135.898438 215.25 135.226562 215.398438 135 C 215.625 134.851562 216.148438 134.925781 216.300781 135.074219 C 216.523438 135.226562 216.601562 135.675781 216.375 136.125 C 216 137.175781 212.625 140.925781 211.875 140.773438 C 211.574219 140.699219 211.425781 140.023438 211.425781 139.5 C 211.425781 138.449219 212.699219 135.523438 213.300781 135.148438 C 213.601562 135 213.976562 135.074219 214.125 135.300781 C 214.351562 135.75 212.851562 138.675781 212.101562 139.351562 C 211.648438 139.726562 210.824219 139.875 210.675781 139.726562 C 210.523438 139.5 213.375 135.976562 214.199219 135.898438 C 214.574219 135.898438 215.101562 136.5 215.175781 136.949219 C 215.175781 137.625 213.375 139.574219 212.699219 139.800781 C 212.398438 139.875 212.023438 139.800781 211.875 139.574219 C 211.726562 139.425781 211.800781 138.601562 211.800781 138.601562 " clip-rule="nonzero"/></clipPath><clipPath id="648a861776"><path d="M 214.378906 136.800781 L 215.859375 136.800781 L 215.859375 138.023438 L 214.378906 138.023438 Z M 214.378906 136.800781 " clip-rule="nonzero"/></clipPath><clipPath id="85f022ab21"><path d="M 215.851562 137.25 C 215.175781 138.226562 214.574219 138.074219 214.425781 137.851562 C 214.351562 137.625 214.425781 137.023438 214.648438 136.875 C 214.800781 136.726562 215.625 136.875 215.625 136.875 " clip-rule="nonzero"/></clipPath><clipPath id="e1e10af427"><path d="M 214.53125 136.953125 L 216 136.953125 L 216 138.175781 L 214.53125 138.175781 Z M 214.53125 136.953125 " clip-rule="nonzero"/></clipPath><clipPath id="beaa1bc0fd"><path d="M 216 137.398438 C 215.324219 138.375 214.726562 138.226562 214.574219 138 C 214.5 137.773438 214.574219 137.175781 214.800781 137.023438 C 214.949219 136.875 215.773438 137.023438 215.773438 137.023438 " clip-rule="nonzero"/></clipPath><clipPath id="f3eead4c5d"><path d="M 213.03125 138.300781 L 214.507812 138.300781 L 214.507812 139.523438 L 213.03125 139.523438 Z M 213.03125 138.300781 " clip-rule="nonzero"/></clipPath><clipPath id="054fabc5a2"><path d="M 214.5 138.75 C 213.824219 139.726562 213.226562 139.574219 213.074219 139.351562 C 213 139.125 213.074219 138.523438 213.300781 138.375 C 213.449219 138.226562 214.273438 138.375 214.273438 138.375 " clip-rule="nonzero"/></clipPath><clipPath id="cead0dd67f"><path d="M 213.78125 137.253906 L 215.257812 137.253906 L 215.257812 138.472656 L 213.78125 138.472656 Z M 213.78125 137.253906 " clip-rule="nonzero"/></clipPath><clipPath id="7a53589f29"><path d="M 215.25 137.699219 C 214.574219 138.675781 213.976562 138.523438 213.824219 138.300781 C 213.75 138.074219 213.824219 137.476562 214.050781 137.324219 C 214.199219 137.175781 215.023438 137.324219 215.023438 137.324219 " clip-rule="nonzero"/></clipPath><clipPath id="2732eee60d"><path d="M 213.78125 137.402344 L 215.257812 137.402344 L 215.257812 138.625 L 213.78125 138.625 Z M 213.78125 137.402344 " clip-rule="nonzero"/></clipPath><clipPath id="c4fb96830b"><path d="M 215.25 137.851562 C 214.574219 138.824219 213.976562 138.675781 213.824219 138.449219 C 213.75 138.226562 213.824219 137.625 214.050781 137.476562 C 214.199219 137.324219 215.023438 137.476562 215.023438 137.476562 " clip-rule="nonzero"/></clipPath></defs><rect x="-37.5" width="450" fill="#ffffff" y="-37.499999" height="449.999989" fill-opacity="1"/><rect x="-37.5" width="450" fill="#ffffff" y="-37.499999" height="449.999989" fill-opacity="1"/><g clip-path="url(#58d1e68331)"><path fill="#3c3a47" d="M 202.464844 192.148438 C 176.027344 192.148438 154.515625 170.640625 154.515625 144.199219 C 154.515625 138.140625 155.695312 132.363281 157.753906 127.019531 C 158.648438 127.105469 159.542969 127.1875 160.449219 127.1875 L 166.046875 127.1875 C 166.167969 127.21875 166.277344 127.277344 166.40625 127.285156 C 185.214844 128.703125 199.949219 144.589844 199.949219 163.445312 C 199.949219 164.144531 200.292969 164.746094 200.800781 165.152344 C 201.167969 165.875 201.898438 166.382812 202.761719 166.382812 C 203.992188 166.382812 204.988281 165.386719 204.988281 164.15625 L 204.988281 163.445312 C 204.988281 143.449219 221.246094 127.183594 241.226562 127.183594 C 243.339844 127.183594 245.421875 127.410156 247.453125 127.773438 C 249.335938 132.90625 250.414062 138.421875 250.414062 144.199219 C 250.414062 170.640625 228.90625 192.148438 202.464844 192.148438 Z M 202.464844 96.253906 C 221.269531 96.253906 237.53125 107.15625 245.382812 122.953125 C 244.011719 122.8125 242.621094 122.734375 241.226562 122.734375 C 223.074219 122.734375 207.671875 134.691406 202.445312 151.148438 C 197.503906 135.746094 183.59375 124.121094 166.738281 122.847656 C 166.554688 122.800781 166.375 122.734375 166.179688 122.734375 L 160.449219 122.734375 C 160.1875 122.734375 159.933594 122.695312 159.671875 122.6875 C 167.574219 107.035156 183.765625 96.253906 202.464844 96.253906 Z M 275.5625 110.691406 C 274.519531 110.042969 273.148438 110.363281 272.496094 111.40625 C 267.996094 118.664062 260.214844 123 251.683594 123 L 250.367188 123 C 242.210938 104.640625 223.8125 91.800781 202.464844 91.800781 C 181.46875 91.800781 163.328125 104.21875 154.976562 122.09375 C 149.011719 120.722656 143.699219 117.171875 140.179688 111.988281 C 139.488281 110.96875 138.105469 110.703125 137.089844 111.394531 C 136.070312 112.082031 135.808594 113.46875 136.5 114.484375 C 140.507812 120.394531 146.484375 124.523438 153.230469 126.261719 C 152.859375 127.285156 152.527344 128.328125 152.214844 129.382812 C 151.945312 129.621094 151.714844 129.902344 151.582031 130.265625 L 98.511719 280.246094 C 98.273438 280.921875 98.378906 281.671875 98.792969 282.257812 C 99.207031 282.84375 99.878906 283.191406 100.597656 283.191406 L 107.949219 283.191406 C 144.398438 283.191406 177.660156 262.875 194.75 230.175781 C 195.316406 229.09375 194.898438 227.761719 193.820312 227.195312 C 192.730469 226.625 191.402344 227.054688 190.839844 228.128906 C 174.511719 259.371094 142.75 278.777344 107.949219 278.777344 L 103.71875 278.777344 L 150.179688 147.472656 C 151.875 174.84375 174.671875 196.597656 202.464844 196.597656 C 223.53125 196.597656 241.722656 184.09375 250.039062 166.125 C 250 167.367188 249.960938 168.566406 249.921875 169.675781 C 249.367188 212.945312 243.691406 231.792969 223.515625 257.359375 C 223.4375 257.457031 223.410156 257.570312 223.355469 257.679688 C 215.503906 258.277344 208.839844 263.109375 205.617188 269.898438 C 202.175781 262.640625 194.792969 257.597656 186.238281 257.597656 C 174.40625 257.597656 163.257812 266.503906 163.257812 278.335938 L 163.261719 278.535156 L 167.710938 278.535156 L 167.707031 278.335938 C 167.707031 268.960938 176.863281 262.046875 186.238281 262.046875 C 195.601562 262.046875 203.222656 269.652344 203.246094 279.007812 L 207.988281 279.007812 C 208.015625 269.652344 215.632812 262.046875 224.996094 262.046875 C 234.359375 262.046875 241.976562 269.652344 242 279.007812 L 246.453125 279.007812 C 246.429688 268.460938 238.757812 259.699219 228.699219 257.9375 C 248.003906 232.785156 253.824219 212.433594 254.371094 169.777344 C 254.441406 167.726562 255.046875 149.640625 254.835938 147.035156 C 254.832031 146.984375 254.804688 146.945312 254.796875 146.898438 C 254.839844 146.003906 254.863281 145.105469 254.863281 144.199219 C 254.863281 138.332031 253.878906 132.695312 252.09375 127.421875 C 262.011719 127.285156 271.035156 122.210938 276.277344 113.753906 C 276.925781 112.710938 276.605469 111.339844 275.5625 110.691406 " fill-opacity="1" fill-rule="nonzero"/></g><g clip-path="url(#b0ba27c62c)"><g clip-path="url(#d4b65a55bd)"><g clip-path="url(#ef4d86e97b)"><path fill="#b8312a" d="M 155.585938 147.449219 C 156.207031 146.933594 156.761719 147.238281 158.664062 149.164062 C 159.613281 150.292969 160.796875 151.242188 162.140625 151.929688 L 162.21875 151.964844 C 162.890625 152.234375 162.917969 152.167969 162.464844 151.390625 C 161.890625 150.390625 161.359375 149.265625 160.910156 148.105469 L 160.863281 147.964844 C 160.691406 147.515625 160.34375 146.5625 160.347656 146.523438 C 160.351562 146.488281 160.289062 146.324219 160.214844 146.109375 C 159.792969 144.945312 159.488281 143.617188 159.355469 142.246094 L 159.347656 142.132812 C 159.351562 140.433594 160.277344 139.460938 161.378906 139.992188 C 161.867188 140.222656 162.039062 140.542969 162.332031 141.789062 C 162.507812 142.527344 162.589844 142.859375 162.660156 143.105469 L 162.894531 143.863281 C 163.144531 144.71875 163.40625 145.433594 163.710938 146.125 L 163.675781 146.035156 C 164.035156 146.828125 164.40625 147.519531 164.820312 148.175781 L 164.796875 148.140625 C 165.132812 148.675781 165.496094 149.164062 165.898438 149.613281 L 165.910156 149.625 C 165.984375 149.589844 166.011719 149.269531 165.960938 148.960938 C 165.847656 147.757812 165.859375 146.390625 166.023438 145.007812 C 166.097656 144.363281 166.207031 143.726562 166.339844 143.101562 L 166.328125 143.179688 C 167.332031 139.09375 170.429688 135.574219 171.910156 136.855469 C 172.566406 137.417969 172.535156 137.960938 171.785156 139.121094 C 170.609375 140.679688 169.796875 142.621094 169.546875 144.765625 C 169.414062 145.894531 169.445312 147.003906 169.621094 148.074219 L 169.609375 147.988281 C 169.828125 149.269531 169.941406 149.285156 170.140625 148.066406 C 170.183594 147.761719 170.242188 147.46875 170.3125 147.183594 L 170.304688 147.222656 C 170.355469 147.085938 170.40625 146.917969 170.445312 146.746094 L 170.449219 146.730469 C 170.585938 146.1875 170.757812 145.707031 170.964844 145.25 L 170.941406 145.308594 C 171.359375 144.238281 171.925781 143.316406 172.617188 142.519531 L 172.589844 142.550781 C 173.621094 141.457031 174.789062 140.5625 176.074219 139.875 L 176.121094 139.851562 C 178.042969 138.746094 179.894531 138.804688 180.136719 139.984375 C 180.289062 140.726562 179.925781 141.121094 178.515625 141.738281 C 176.585938 142.402344 175.0625 143.914062 174.433594 145.875 L 174.425781 145.914062 C 174.367188 146.109375 174.324219 146.335938 174.296875 146.570312 C 174.257812 146.90625 174.257812 147.238281 174.289062 147.558594 L 174.285156 147.527344 C 174.378906 151.78125 179.328125 154.734375 182.082031 152.175781 C 182.992188 151.199219 183.617188 149.914062 183.789062 148.460938 C 184.023438 146.476562 183.351562 144.59375 182.101562 143.226562 L 182.09375 143.21875 C 180.757812 141.707031 180.476562 141.046875 180.871094 140.359375 C 181.726562 138.875 185.109375 141.394531 186.523438 144.574219 C 186.648438 144.867188 187.089844 146.136719 187.160156 146.441406 L 187.289062 146.976562 C 187.320312 147.109375 187.363281 147.335938 187.394531 147.484375 L 187.492188 148.140625 C 187.671875 149.898438 187.660156 151.894531 187.421875 153.914062 C 187.363281 154.425781 187.289062 154.929688 187.199219 155.429688 L 187.214844 155.359375 C 186.785156 159.679688 186.851562 160.210938 188.128906 162.695312 C 188.507812 163.433594 188.753906 163.882812 189.277344 164.796875 C 189.652344 165.453125 189.652344 165.429688 189.179688 166.0625 C 187.410156 168.617188 184.375 170.113281 181.128906 169.730469 C 180.953125 169.710938 180.785156 169.683594 180.613281 169.652344 L 180.636719 169.660156 C 180.054688 169.554688 180.105469 169.597656 179.652344 168.753906 C 178.640625 166.867188 176.722656 163.605469 176.535156 163.453125 C 176.472656 163.402344 174.542969 162.765625 174.121094 162.65625 C 173.980469 162.621094 173.859375 162.578125 173.742188 162.527344 L 173.757812 162.535156 C 173.648438 162.484375 173.511719 162.4375 173.375 162.394531 L 173.355469 162.390625 C 173.117188 162.320312 172.433594 162.09375 171.417969 161.742188 C 169.632812 161.089844 168.179688 160.453125 166.769531 159.746094 L 167.0625 159.878906 C 167.007812 159.84375 166.777344 159.710938 166.546875 159.59375 C 162.4375 157.367188 159.0625 154.433594 156.425781 150.945312 L 156.414062 150.933594 C 155.367188 149.316406 155.019531 147.910156 155.570312 147.453125 Z M 172.03125 112.484375 C 173.503906 110.378906 175.789062 108.988281 178.351562 108.707031 L 178.414062 108.703125 C 178.972656 108.6875 179.609375 108.714844 180.253906 108.789062 C 180.484375 108.816406 180.714844 108.851562 180.941406 108.890625 L 180.910156 108.882812 C 181.195312 108.960938 181.203125 108.972656 182.402344 111.214844 C 182.621094 111.613281 183.273438 112.742188 183.613281 113.300781 C 183.761719 113.539062 184.019531 113.972656 184.207031 114.269531 C 184.605469 114.925781 184.789062 115.148438 184.972656 115.171875 C 185.050781 115.179688 185.496094 115.316406 185.964844 115.46875 C 186.433594 115.625 186.984375 115.808594 187.191406 115.871094 C 187.59375 115.992188 188.222656 116.199219 189.144531 116.515625 C 190.109375 116.847656 190.933594 117.160156 192.105469 117.644531 C 192.75 117.90625 194.160156 118.597656 194.808594 118.960938 C 195.703125 119.464844 195.828125 119.542969 196.910156 120.25 C 198.644531 121.382812 200.101562 122.523438 201.457031 123.765625 L 201.359375 123.683594 L 202.074219 124.339844 C 205.011719 127.050781 206.773438 130.554688 205.5 131.15625 C 204.875 131.445312 204.367188 131.128906 202.632812 129.371094 C 201.992188 128.679688 201.273438 128.007812 200.507812 127.394531 L 200.429688 127.332031 C 200.351562 127.28125 200.183594 127.167969 200.066406 127.085938 C 199.636719 126.777344 199.121094 126.523438 198.558594 126.371094 L 198.535156 126.363281 C 198.410156 126.386719 198.460938 126.550781 198.71875 126.988281 C 199.53125 128.421875 200.25 130.019531 200.816406 131.683594 L 200.867188 131.863281 L 201.109375 132.574219 C 201.308594 133.191406 201.691406 134.679688 201.78125 135.195312 C 201.917969 135.640625 201.96875 136.144531 201.910156 136.660156 C 201.898438 136.753906 201.882812 136.847656 201.867188 136.9375 L 201.867188 136.925781 C 201.726562 137.855469 201.40625 138.367188 200.835938 138.574219 C 200.679688 138.621094 200.5 138.636719 200.316406 138.613281 C 199.792969 138.550781 199.371094 138.203125 199.195312 137.742188 L 199.191406 137.734375 C 199.125 137.550781 199.054688 137.316406 198.996094 137.074219 L 198.988281 137.027344 C 198.871094 136.511719 198.683594 135.730469 198.648438 135.632812 C 198.628906 135.570312 198.566406 135.367188 198.515625 135.175781 C 197.933594 132.9375 196.964844 130.960938 195.664062 129.238281 L 195.667969 129.246094 C 195.375 128.867188 195.210938 128.765625 195.234375 128.980469 C 195.328125 129.710938 195.386719 130.617188 195.386719 131.527344 L 195.382812 131.636719 C 195.375 132.125 195.335938 132.683594 195.269531 133.25 C 195.125 134.472656 194.859375 135.648438 194.484375 136.769531 L 194.519531 136.65625 C 193.128906 140.398438 190.449219 142.863281 189.210938 141.535156 C 188.636719 140.917969 188.703125 140.550781 189.621094 139.121094 C 189.789062 138.878906 189.976562 138.578125 190.148438 138.261719 L 190.183594 138.199219 C 190.1875 138.152344 190.210938 138.113281 190.242188 138.082031 C 190.496094 137.652344 190.75 137.121094 190.964844 136.570312 L 190.992188 136.488281 C 191.347656 135.664062 191.613281 134.695312 191.734375 133.675781 C 191.847656 132.683594 191.824219 131.710938 191.667969 130.769531 L 191.675781 130.84375 C 191.511719 129.871094 191.480469 129.753906 191.382812 129.65625 C 191.25 129.527344 191.207031 129.625 191.128906 130.21875 C 190.890625 131.746094 190.410156 133.152344 189.722656 134.425781 L 189.761719 134.34375 C 189.019531 135.628906 188.0625 136.679688 186.9375 137.503906 L 186.933594 137.511719 C 186.734375 137.648438 186.53125 137.789062 186.484375 137.824219 C 185.445312 138.558594 184.261719 139.113281 182.996094 139.4375 L 182.921875 139.453125 C 181.589844 139.621094 180.726562 138.761719 181.238281 137.765625 C 181.421875 137.410156 181.679688 137.230469 182.484375 136.886719 C 185.980469 135.394531 187.46875 133.042969 186.828125 129.984375 C 186.363281 127.617188 184.449219 125.746094 181.96875 125.453125 C 181.589844 125.410156 181.21875 125.40625 180.855469 125.433594 L 180.890625 125.429688 C 178.527344 125.828125 176.90625 129.058594 177.550781 132.117188 C 177.898438 133.664062 178.683594 135.003906 179.773438 136.035156 L 179.792969 136.050781 C 180.421875 136.78125 180.550781 137.097656 180.476562 137.710938 C 180.375 138.585938 179.613281 138.882812 178.78125 138.375 C 178.703125 138.324219 178.613281 138.277344 178.519531 138.234375 L 178.507812 138.230469 C 177.984375 137.929688 177.546875 137.613281 177.144531 137.261719 L 177.171875 137.285156 C 176.242188 136.460938 175.496094 135.492188 174.957031 134.410156 L 174.9375 134.375 C 173.992188 132.382812 173.503906 130.070312 173.636719 127.664062 L 173.640625 127.625 C 173.644531 127.382812 173.851562 125.113281 174.171875 121.734375 C 174.195312 121.601562 174.21875 121.441406 174.238281 121.28125 C 174.398438 119.914062 174.253906 118.582031 173.855469 117.347656 L 173.871094 117.410156 C 173.230469 115.9375 172.570312 114.671875 171.832031 113.449219 L 171.878906 113.527344 C 171.605469 113.109375 171.621094 113.054688 172.046875 112.488281 Z M 172.03125 112.484375 " fill-opacity="1" fill-rule="nonzero"/></g></g></g><g clip-path="url(#3e0e72316a)"><g clip-path="url(#19557ee150)"><path fill="#ffffff" d="M 176.625 131.625 L 191.171875 131.625 L 191.171875 142.875 L 176.625 142.875 Z M 176.625 131.625 " fill-opacity="1" fill-rule="nonzero"/></g></g><g clip-path="url(#d65eed5465)"><g clip-path="url(#ab87ba6df0)"><path fill="#ffffff" d="M 173.550781 129.75 L 183.683594 129.75 L 183.683594 139.574219 L 173.550781 139.574219 Z M 173.550781 129.75 " fill-opacity="1" fill-rule="nonzero"/></g></g><g clip-path="url(#1c7e903af1)"><g clip-path="url(#adbe646448)"><path fill="#ffffff" d="M 172.800781 131.925781 L 182.933594 131.925781 L 182.933594 141.75 L 172.800781 141.75 Z M 172.800781 131.925781 " fill-opacity="1" fill-rule="nonzero"/></g></g><g clip-path="url(#dc18e3a29d)"><g clip-path="url(#7ae33a192c)"><path fill="#ffffff" d="M 174.449219 131.925781 L 184.582031 131.925781 L 184.582031 141.75 L 174.449219 141.75 Z M 174.449219 131.925781 " fill-opacity="1" fill-rule="nonzero"/></g></g><g clip-path="url(#a799817858)"><g clip-path="url(#b7d038e4ca)"><path fill="#ffffff" d="M 176.023438 132.449219 L 186.15625 132.449219 L 186.15625 142.273438 L 176.023438 142.273438 Z M 176.023438 132.449219 " fill-opacity="1" fill-rule="nonzero"/></g></g><g clip-path="url(#d5d41b04cf)"><g clip-path="url(#c03add8503)"><path fill="#ffffff" d="M 177.074219 132.898438 L 187.207031 132.898438 L 187.207031 142.726562 L 177.074219 142.726562 Z M 177.074219 132.898438 " fill-opacity="1" fill-rule="nonzero"/></g></g><g clip-path="url(#d74f948724)"><g clip-path="url(#a289f99af0)"><path fill="#ffffff" d="M 183.601562 136.425781 L 193.730469 136.425781 L 193.730469 146.25 L 183.601562 146.25 Z M 183.601562 136.425781 " fill-opacity="1" fill-rule="nonzero"/></g></g><g clip-path="url(#89fe7e9881)"><g clip-path="url(#7e91b63d36)"><path fill="#ffffff" d="M 183.449219 135.449219 L 193.582031 135.449219 L 193.582031 145.273438 L 183.449219 145.273438 Z M 183.449219 135.449219 " fill-opacity="1" fill-rule="nonzero"/></g></g><g clip-path="url(#fc42d10168)"><g clip-path="url(#f968f3a7de)"><path fill="#ffffff" d="M 184.574219 136.273438 L 194.707031 136.273438 L 194.707031 146.101562 L 184.574219 146.101562 Z M 184.574219 136.273438 " fill-opacity="1" fill-rule="nonzero"/></g></g><g clip-path="url(#9e88ba53b1)"><g clip-path="url(#0f4d60fa3e)"><path fill="#ffffff" d="M 183.449219 135.375 L 193.582031 135.375 L 193.582031 145.199219 L 183.449219 145.199219 Z M 183.449219 135.375 " fill-opacity="1" fill-rule="nonzero"/></g></g><g clip-path="url(#ea52febe9c)"><g clip-path="url(#1dea77be83)"><path fill="#ffffff" d="M 183.675781 135.226562 L 193.808594 135.226562 L 193.808594 145.050781 L 183.675781 145.050781 Z M 183.675781 135.226562 " fill-opacity="1" fill-rule="nonzero"/></g></g><g clip-path="url(#3d4a145997)"><g clip-path="url(#00509a09e2)"><g clip-path="url(#15fa2d52b6)"><path fill="#86a459" d="M 249.382812 147.472656 C 248.773438 146.941406 248.210938 147.234375 246.265625 149.117188 C 245.292969 150.226562 244.089844 151.148438 242.726562 151.804688 L 242.652344 151.839844 C 241.972656 152.089844 241.945312 152.023438 242.417969 151.257812 C 243.011719 150.269531 243.570312 149.160156 244.042969 148.007812 L 244.09375 147.871094 C 244.277344 147.425781 244.644531 146.476562 244.640625 146.441406 C 244.640625 146.40625 244.707031 146.242188 244.785156 146.027344 C 245.234375 144.875 245.570312 143.554688 245.734375 142.1875 L 245.742188 142.074219 C 245.777344 140.371094 244.875 139.382812 243.761719 139.886719 C 243.265625 140.109375 243.089844 140.421875 242.769531 141.660156 C 242.578125 142.394531 242.484375 142.726562 242.410156 142.972656 L 242.15625 143.722656 C 241.890625 144.570312 241.609375 145.28125 241.289062 145.964844 L 241.328125 145.875 C 240.949219 146.664062 240.5625 147.34375 240.132812 147.992188 L 240.15625 147.957031 C 239.8125 148.484375 239.4375 148.960938 239.023438 149.402344 L 239.011719 149.414062 C 238.9375 149.375 238.921875 149.054688 238.976562 148.75 C 239.117188 147.550781 239.136719 146.183594 239.003906 144.796875 C 238.945312 144.148438 238.851562 143.511719 238.730469 142.882812 L 238.742188 142.964844 C 237.832031 138.851562 234.8125 135.265625 233.304688 136.515625 C 232.632812 137.0625 232.652344 137.605469 233.378906 138.78125 C 234.515625 140.367188 235.285156 142.328125 235.488281 144.476562 C 235.59375 145.609375 235.539062 146.714844 235.339844 147.777344 L 235.351562 147.695312 C 235.105469 148.96875 234.988281 148.984375 234.820312 147.761719 C 234.785156 147.453125 234.730469 147.164062 234.667969 146.875 L 234.675781 146.914062 C 234.625 146.773438 234.578125 146.609375 234.542969 146.433594 L 234.539062 146.421875 C 234.414062 145.875 234.253906 145.386719 234.058594 144.925781 L 234.082031 144.988281 C 233.683594 143.90625 233.140625 142.972656 232.46875 142.160156 L 232.492188 142.191406 C 231.488281 141.078125 230.339844 140.15625 229.074219 139.4375 L 229.027344 139.414062 C 227.128906 138.265625 225.277344 138.28125 225.007812 139.457031 C 224.839844 140.195312 225.195312 140.597656 226.589844 141.242188 C 228.503906 141.953125 229.992188 143.5 230.574219 145.472656 L 230.585938 145.511719 C 230.636719 145.707031 230.675781 145.9375 230.699219 146.171875 C 230.730469 146.507812 230.722656 146.839844 230.683594 147.160156 L 230.6875 147.128906 C 230.496094 151.378906 225.484375 154.21875 222.789062 151.597656 C 221.902344 150.601562 221.300781 149.300781 221.164062 147.847656 C 220.976562 145.859375 221.6875 143.992188 222.96875 142.652344 L 222.976562 142.644531 C 224.347656 141.164062 224.644531 140.507812 224.265625 139.8125 C 223.445312 138.308594 220.007812 140.75 218.519531 143.898438 C 218.386719 144.1875 217.917969 145.449219 217.839844 145.753906 L 217.699219 146.285156 C 217.664062 146.414062 217.617188 146.644531 217.582031 146.789062 L 217.46875 147.445312 C 217.25 149.199219 217.21875 151.191406 217.410156 153.214844 C 217.457031 153.726562 217.519531 154.234375 217.597656 154.738281 L 217.585938 154.667969 C 217.914062 158.996094 217.835938 159.527344 216.503906 161.980469 C 216.109375 162.707031 215.851562 163.152344 215.308594 164.054688 C 214.921875 164.703125 214.917969 164.675781 215.375 165.320312 C 217.085938 167.917969 220.089844 169.480469 223.34375 169.171875 C 223.515625 169.15625 223.6875 169.132812 223.859375 169.105469 L 223.835938 169.109375 C 224.421875 169.019531 224.371094 169.058594 224.839844 168.226562 C 225.894531 166.363281 227.886719 163.144531 228.078125 163 C 228.140625 162.949219 230.085938 162.359375 230.511719 162.257812 C 230.652344 162.222656 230.773438 162.183594 230.894531 162.136719 L 230.878906 162.144531 C 230.984375 162.097656 231.121094 162.050781 231.261719 162.011719 L 231.28125 162.007812 C 231.523438 161.945312 232.207031 161.730469 233.230469 161.40625 C 235.03125 160.792969 236.5 160.191406 237.921875 159.515625 L 237.628906 159.640625 C 237.6875 159.605469 237.917969 159.480469 238.148438 159.367188 C 242.308594 157.234375 245.75 154.378906 248.464844 150.949219 L 248.476562 150.9375 C 249.5625 149.34375 249.941406 147.945312 249.398438 147.476562 Z M 233.734375 112.144531 C 232.308594 110.007812 230.058594 108.566406 227.5 108.226562 L 227.4375 108.222656 C 226.878906 108.191406 226.242188 108.207031 225.597656 108.265625 C 225.363281 108.289062 225.132812 108.316406 224.90625 108.351562 L 224.9375 108.34375 C 224.648438 108.417969 224.644531 108.425781 223.390625 110.640625 C 223.167969 111.035156 222.488281 112.148438 222.132812 112.699219 C 221.984375 112.9375 221.714844 113.363281 221.519531 113.65625 C 221.109375 114.300781 220.917969 114.519531 220.734375 114.539062 C 220.65625 114.542969 220.207031 114.671875 219.734375 114.816406 C 219.261719 114.960938 218.707031 115.128906 218.5 115.1875 C 218.09375 115.300781 217.460938 115.492188 216.535156 115.789062 C 215.558594 116.097656 214.730469 116.390625 213.546875 116.847656 C 212.898438 117.097656 211.46875 117.753906 210.8125 118.105469 C 209.910156 118.589844 209.78125 118.664062 208.683594 119.34375 C 206.925781 120.441406 205.445312 121.546875 204.058594 122.757812 L 204.15625 122.679688 L 203.429688 123.320312 C 200.433594 125.964844 198.59375 129.425781 199.851562 130.054688 C 200.46875 130.359375 200.980469 130.054688 202.757812 128.335938 C 203.414062 127.660156 204.148438 127.003906 204.929688 126.40625 L 205.007812 126.347656 C 205.085938 126.296875 205.253906 126.191406 205.375 126.109375 C 205.8125 125.808594 206.332031 125.570312 206.898438 125.429688 L 206.921875 125.421875 C 207.046875 125.449219 206.992188 125.613281 206.726562 126.042969 C 205.878906 127.457031 205.125 129.039062 204.519531 130.691406 L 204.464844 130.867188 L 204.207031 131.574219 C 203.996094 132.183594 203.578125 133.664062 203.476562 134.179688 C 203.328125 134.617188 203.269531 135.121094 203.316406 135.640625 C 203.324219 135.734375 203.339844 135.828125 203.351562 135.917969 L 203.351562 135.90625 C 203.472656 136.839844 203.78125 137.355469 204.34375 137.578125 C 204.5 137.625 204.679688 137.644531 204.863281 137.628906 C 205.390625 137.578125 205.816406 137.238281 206.003906 136.785156 L 206.007812 136.773438 C 206.082031 136.589844 206.15625 136.359375 206.21875 136.121094 L 206.230469 136.070312 C 206.355469 135.558594 206.5625 134.785156 206.597656 134.6875 C 206.621094 134.625 206.6875 134.421875 206.742188 134.234375 C 207.375 132.003906 208.386719 130.054688 209.726562 128.359375 L 209.722656 128.367188 C 210.023438 127.992188 210.191406 127.898438 210.160156 128.113281 C 210.050781 128.839844 209.976562 129.742188 209.953125 130.65625 L 209.953125 130.765625 C 209.949219 131.25 209.976562 131.8125 210.03125 132.382812 C 210.148438 133.605469 210.386719 134.785156 210.734375 135.917969 L 210.703125 135.804688 C 212.007812 139.574219 214.632812 142.101562 215.902344 140.800781 C 216.488281 140.195312 216.429688 139.828125 215.542969 138.378906 C 215.382812 138.132812 215.203125 137.824219 215.035156 137.507812 L 215.003906 137.441406 C 215 137.398438 214.976562 137.355469 214.945312 137.324219 C 214.707031 136.890625 214.460938 136.355469 214.257812 135.796875 L 214.234375 135.714844 C 213.894531 134.878906 213.652344 133.910156 213.558594 132.886719 C 213.464844 131.894531 213.511719 130.917969 213.6875 129.980469 L 213.675781 130.058594 C 213.863281 129.085938 213.894531 128.96875 213.996094 128.875 C 214.132812 128.75 214.171875 128.851562 214.238281 129.445312 C 214.441406 130.976562 214.894531 132.394531 215.550781 133.683594 L 215.511719 133.597656 C 216.226562 134.898438 217.160156 135.972656 218.265625 136.824219 L 218.269531 136.828125 C 218.464844 136.972656 218.664062 137.113281 218.710938 137.152344 C 219.730469 137.910156 220.902344 138.492188 222.160156 138.84375 L 222.234375 138.863281 C 223.5625 139.058594 224.445312 138.21875 223.957031 137.210938 C 223.78125 136.851562 223.527344 136.664062 222.730469 136.304688 C 219.269531 134.734375 217.835938 132.351562 218.542969 129.308594 C 219.0625 126.949219 221.015625 125.121094 223.507812 124.886719 C 223.882812 124.851562 224.257812 124.855469 224.617188 124.890625 L 224.582031 124.886719 C 226.9375 125.339844 228.484375 128.605469 227.769531 131.648438 C 227.386719 133.1875 226.574219 134.511719 225.460938 135.515625 L 225.441406 135.53125 C 224.796875 136.246094 224.660156 136.558594 224.71875 137.175781 C 224.800781 138.050781 225.554688 138.367188 226.398438 137.878906 C 226.476562 137.828125 226.570312 137.78125 226.664062 137.742188 L 226.675781 137.738281 C 227.203125 137.449219 227.648438 137.140625 228.0625 136.800781 L 228.03125 136.824219 C 228.980469 136.019531 229.746094 135.070312 230.3125 134 L 230.332031 133.964844 C 231.324219 131.996094 231.863281 129.691406 231.785156 127.285156 L 231.78125 127.246094 C 231.785156 127.003906 231.628906 124.730469 231.382812 121.34375 C 231.363281 121.210938 231.34375 121.050781 231.328125 120.890625 C 231.199219 119.519531 231.375 118.191406 231.800781 116.96875 L 231.78125 117.027344 C 232.457031 115.570312 233.144531 114.316406 233.910156 113.117188 L 233.863281 113.191406 C 234.144531 112.78125 234.132812 112.726562 233.71875 112.148438 Z M 233.734375 112.144531 " fill-opacity="1" fill-rule="nonzero"/></g></g></g><g clip-path="url(#711f24937f)"><g clip-path="url(#eb84a7c3b6)"><path fill="#ffffff" d="M 217.726562 131.175781 L 227.855469 131.175781 L 227.855469 141 L 217.726562 141 Z M 217.726562 131.175781 " fill-opacity="1" fill-rule="nonzero"/></g></g><g clip-path="url(#cf36d92666)"><g clip-path="url(#7b2915bd49)"><path fill="#ffffff" d="M 218.175781 132.148438 L 228.308594 132.148438 L 228.308594 141.976562 L 218.175781 141.976562 Z M 218.175781 132.148438 " fill-opacity="1" fill-rule="nonzero"/></g></g><g clip-path="url(#9cd522d071)"><g clip-path="url(#035fcc8203)"><path fill="#ffffff" d="M 215.25 133.050781 L 225.382812 133.050781 L 225.382812 142.875 L 215.25 142.875 Z M 215.25 133.050781 " fill-opacity="1" fill-rule="nonzero"/></g></g><g clip-path="url(#eb2d9f5fac)"><g clip-path="url(#963a219434)"><path fill="#ffffff" d="M 220.199219 131.476562 L 230.332031 131.476562 L 230.332031 141.300781 L 220.199219 141.300781 Z M 220.199219 131.476562 " fill-opacity="1" fill-rule="nonzero"/></g></g><g clip-path="url(#29568438d1)"><g clip-path="url(#a29cd2afc7)"><path fill="#ffffff" d="M 221.398438 131.175781 L 231.53125 131.175781 L 231.53125 141 L 221.398438 141 Z M 221.398438 131.175781 " fill-opacity="1" fill-rule="nonzero"/></g></g><g clip-path="url(#f2a1cc88f4)"><g clip-path="url(#a80bcc19d1)"><path fill="#ffffff" d="M 221.699219 131.023438 L 231.832031 131.023438 L 231.832031 140.851562 L 221.699219 140.851562 Z M 221.699219 131.023438 " fill-opacity="1" fill-rule="nonzero"/></g></g><g clip-path="url(#b9be848a14)"><g clip-path="url(#2979ded782)"><path fill="#ffffff" d="M 222.824219 130.875 L 232.957031 130.875 L 232.957031 140.699219 L 222.824219 140.699219 Z M 222.824219 130.875 " fill-opacity="1" fill-rule="nonzero"/></g></g><g clip-path="url(#cba41902cb)"><g clip-path="url(#da67d70c0b)"><path fill="#ffffff" d="M 220.949219 131.324219 L 231.082031 131.324219 L 231.082031 141.148438 L 220.949219 141.148438 Z M 220.949219 131.324219 " fill-opacity="1" fill-rule="nonzero"/></g></g><g clip-path="url(#3370b50ef5)"><g clip-path="url(#3ce5e67429)"><path fill="#ffffff" d="M 218.324219 132.300781 L 228.457031 132.300781 L 228.457031 142.125 L 218.324219 142.125 Z M 218.324219 132.300781 " fill-opacity="1" fill-rule="nonzero"/></g></g><g clip-path="url(#3359d430fd)"><g clip-path="url(#832836e00d)"><path fill="#ffffff" d="M 219.074219 132.148438 L 229.207031 132.148438 L 229.207031 141.976562 L 219.074219 141.976562 Z M 219.074219 132.148438 " fill-opacity="1" fill-rule="nonzero"/></g></g><g clip-path="url(#438121138f)"><g clip-path="url(#8b1ef8045b)"><path fill="#ffffff" d="M 221.699219 131.175781 L 231.832031 131.175781 L 231.832031 141 L 221.699219 141 Z M 221.699219 131.175781 " fill-opacity="1" fill-rule="nonzero"/></g></g><g clip-path="url(#33560a04e1)"><g clip-path="url(#5c1b917bd5)"><path fill="#ffffff" d="M 220.648438 131.476562 L 230.78125 131.476562 L 230.78125 141.300781 L 220.648438 141.300781 Z M 220.648438 131.476562 " fill-opacity="1" fill-rule="nonzero"/></g></g><g clip-path="url(#1ee7078ebd)"><g clip-path="url(#a5a81b7e8f)"><path fill="#ffffff" d="M 221.398438 131.175781 L 231.53125 131.175781 L 231.53125 141 L 221.398438 141 Z M 221.398438 131.175781 " fill-opacity="1" fill-rule="nonzero"/></g></g><g clip-path="url(#599448bc01)"><g clip-path="url(#7df8cc4d61)"><path fill="#ffffff" d="M 221.550781 131.324219 L 231.683594 131.324219 L 231.683594 141.148438 L 221.550781 141.148438 Z M 221.550781 131.324219 " fill-opacity="1" fill-rule="nonzero"/></g></g><g clip-path="url(#ba0e2c8f63)"><g clip-path="url(#249a29add2)"><path fill="#ffffff" d="M 220.949219 131.324219 L 231.082031 131.324219 L 231.082031 141.148438 L 220.949219 141.148438 Z M 220.949219 131.324219 " fill-opacity="1" fill-rule="nonzero"/></g></g><g clip-path="url(#7c74c9853c)"><g clip-path="url(#e722ddb3c1)"><path fill="#ffffff" d="M 221.699219 131.175781 L 231.832031 131.175781 L 231.832031 141 L 221.699219 141 Z M 221.699219 131.175781 " fill-opacity="1" fill-rule="nonzero"/></g></g><g clip-path="url(#200807ea94)"><g clip-path="url(#3637ddf80b)"><path fill="#ffffff" d="M 221.398438 130.875 L 231.53125 130.875 L 231.53125 140.699219 L 221.398438 140.699219 Z M 221.398438 130.875 " fill-opacity="1" fill-rule="nonzero"/></g></g><g clip-path="url(#8b743849ab)"><g clip-path="url(#82e9470152)"><path fill="#ffffff" d="M 221.25 131.324219 L 231.382812 131.324219 L 231.382812 141.148438 L 221.25 141.148438 Z M 221.25 131.324219 " fill-opacity="1" fill-rule="nonzero"/></g></g><g clip-path="url(#6e4d46485f)"><g clip-path="url(#35cab75676)"><path fill="#ffffff" d="M 221.398438 131.625 L 231.53125 131.625 L 231.53125 141.449219 L 221.398438 141.449219 Z M 221.398438 131.625 " fill-opacity="1" fill-rule="nonzero"/></g></g><g clip-path="url(#cd651b3ed9)"><g clip-path="url(#53c69cc7a8)"><path fill="#ffffff" d="M 222.449219 131.324219 L 232.582031 131.324219 L 232.582031 141.148438 L 222.449219 141.148438 Z M 222.449219 131.324219 " fill-opacity="1" fill-rule="nonzero"/></g></g><g clip-path="url(#132c6d6547)"><g clip-path="url(#8b3b42b59a)"><path fill="#ffffff" d="M 217.800781 132.523438 L 227.933594 132.523438 L 227.933594 142.351562 L 217.800781 142.351562 Z M 217.800781 132.523438 " fill-opacity="1" fill-rule="nonzero"/></g></g><g clip-path="url(#d477294023)"><g clip-path="url(#13b983a12a)"><path fill="#ffffff" d="M 218.550781 132.074219 L 228.683594 132.074219 L 228.683594 141.898438 L 218.550781 141.898438 Z M 218.550781 132.074219 " fill-opacity="1" fill-rule="nonzero"/></g></g><g clip-path="url(#4d91a6fa1a)"><g clip-path="url(#bef04aa3ce)"><path fill="#ffffff" d="M 218.398438 132.226562 L 228.53125 132.226562 L 228.53125 142.050781 L 218.398438 142.050781 Z M 218.398438 132.226562 " fill-opacity="1" fill-rule="nonzero"/></g></g><g clip-path="url(#f63e6818f2)"><g clip-path="url(#bfe711f0bf)"><path fill="#ffffff" d="M 218.25 132.375 L 228.382812 132.375 L 228.382812 142.199219 L 218.25 142.199219 Z M 218.25 132.375 " fill-opacity="1" fill-rule="nonzero"/></g></g><g clip-path="url(#145bd75679)"><g clip-path="url(#d3ff17832c)"><path fill="#ffffff" d="M 218.25 132.523438 L 228.382812 132.523438 L 228.382812 142.351562 L 218.25 142.351562 Z M 218.25 132.523438 " fill-opacity="1" fill-rule="nonzero"/></g></g><g clip-path="url(#8f65885ca8)"><g clip-path="url(#9ca678c849)"><path fill="#ffffff" d="M 211.199219 134.25 L 222.300781 134.25 L 222.300781 145.480469 L 211.199219 145.480469 Z M 211.199219 134.25 " fill-opacity="1" fill-rule="nonzero"/></g></g><g clip-path="url(#2784a56305)"><g clip-path="url(#4c04a1cb6c)"><path fill="#ffffff" d="M 210.675781 137.175781 L 218.09375 137.175781 L 218.09375 144.449219 L 210.675781 144.449219 Z M 210.675781 137.175781 " fill-opacity="1" fill-rule="nonzero"/></g></g><g clip-path="url(#8fb8df71cd)"><g clip-path="url(#708ffb75ef)"><path fill="#ffffff" d="M 211.125 136.125 L 218.542969 136.125 L 218.542969 143.398438 L 211.125 143.398438 Z M 211.125 136.125 " fill-opacity="1" fill-rule="nonzero"/></g></g><g clip-path="url(#8822bddc33)"><g clip-path="url(#e45b2e46bc)"><path fill="#ffffff" d="M 210.675781 136.574219 L 218.09375 136.574219 L 218.09375 143.851562 L 210.675781 143.851562 Z M 210.675781 136.574219 " fill-opacity="1" fill-rule="nonzero"/></g></g><g clip-path="url(#836ea3c551)"><g clip-path="url(#2979435b97)"><path fill="#ffffff" d="M 211.425781 135.976562 L 218.84375 135.976562 L 218.84375 143.25 L 211.425781 143.25 Z M 211.425781 135.976562 " fill-opacity="1" fill-rule="nonzero"/></g></g><g clip-path="url(#9311400230)"><g clip-path="url(#364875a7c4)"><path fill="#ffffff" d="M 211.875 135.523438 L 219.292969 135.523438 L 219.292969 142.800781 L 211.875 142.800781 Z M 211.875 135.523438 " fill-opacity="1" fill-rule="nonzero"/></g></g><g clip-path="url(#a59c561b53)"><g clip-path="url(#06be311077)"><path fill="#ffffff" d="M 211.273438 135.449219 L 220.273438 135.449219 L 220.273438 145.714844 L 211.273438 145.714844 Z M 211.273438 135.449219 " fill-opacity="1" fill-rule="nonzero"/></g></g><g clip-path="url(#b008278988)"><g clip-path="url(#b2cd2b021e)"><path fill="#ffffff" d="M 211.574219 135.675781 L 218.992188 135.675781 L 218.992188 142.949219 L 211.574219 142.949219 Z M 211.574219 135.675781 " fill-opacity="1" fill-rule="nonzero"/></g></g><g clip-path="url(#3894a68205)"><g clip-path="url(#adaeca636c)"><g clip-path="url(#bdd08660fd)"><path fill="#5e5b73" d="M 106.34375 294.015625 L 144.320312 186.707031 L 141.746094 185.832031 Z M 106.34375 294.015625 " fill-opacity="1" fill-rule="nonzero"/></g></g></g><g clip-path="url(#f1df88b010)"><g clip-path="url(#0eeceaccea)"><g clip-path="url(#c71e4e87de)"><path fill="#5e5b73" d="M 116.035156 280.238281 L 151.117188 181.410156 L 148.554688 180.539062 Z M 116.035156 280.238281 " fill-opacity="1" fill-rule="nonzero"/></g></g></g><g clip-path="url(#7e41de379e)"><g clip-path="url(#b87f4914f0)"><g clip-path="url(#ed0eacb2c3)"><path fill="#5e5b73" d="M 122.648438 275.492188 L 154.566406 185.933594 L 152.023438 185.066406 Z M 122.648438 275.492188 " fill-opacity="1" fill-rule="nonzero"/></g></g></g><g clip-path="url(#f709189cfe)"><g clip-path="url(#adf3b1bc9b)"><g clip-path="url(#dec14983f8)"><g clip-path="url(#d627ee2a92)"><path fill="#5e5b73" d="M 131.492188 264.210938 L 161.144531 181.261719 L 158.621094 180.402344 Z M 131.492188 264.210938 " fill-opacity="1" fill-rule="nonzero"/></g></g></g></g><g clip-path="url(#e8fb6179f4)"><g clip-path="url(#a1299d00c5)"><g clip-path="url(#7dbd14302c)"><path fill="#5e5b73" d="M 134.398438 270.359375 L 161.519531 194.808594 L 159.015625 193.957031 Z M 134.398438 270.359375 " fill-opacity="1" fill-rule="nonzero"/></g></g></g><g clip-path="url(#e19b75482c)"><g clip-path="url(#82c310d8cd)"><g clip-path="url(#a169ef95a7)"><path fill="#5e5b73" d="M 166.53125 234.71875 L 181.613281 194.210938 L 179.300781 193.425781 Z M 166.53125 234.71875 " fill-opacity="1" fill-rule="nonzero"/></g></g></g><g clip-path="url(#f08385ae1b)"><g clip-path="url(#95a3059a03)"><g clip-path="url(#f4d6a7b441)"><path fill="#5e5b73" d="M 159.121094 241.796875 L 176.582031 194.398438 L 174.214844 193.59375 Z M 159.121094 241.796875 " fill-opacity="1" fill-rule="nonzero"/></g></g></g><g clip-path="url(#5d769240a5)"><g clip-path="url(#93f77c4929)"><g clip-path="url(#2fa9bde312)"><path fill="#5e5b73" d="M 152.25 247.296875 L 173.460938 188.984375 L 171.03125 188.15625 Z M 152.25 247.296875 " fill-opacity="1" fill-rule="nonzero"/></g></g></g><g clip-path="url(#2a9f94b99b)"><g clip-path="url(#d490c9043b)"><g clip-path="url(#a36adc31a2)"><path fill="#5e5b73" d="M 144.066406 256.640625 L 168.3125 189.492188 L 165.839844 188.652344 Z M 144.066406 256.640625 " fill-opacity="1" fill-rule="nonzero"/></g></g></g><g clip-path="url(#3d40c42f61)"><g clip-path="url(#aef2b74dc7)"><g clip-path="url(#ee24c84064)"><path fill="#86a459" d="M 208.546875 287.464844 C 208.113281 286.027344 208.363281 284.671875 208.894531 283.28125 C 210.164062 279.953125 211.3125 276.570312 212.574219 273.238281 C 213 272.132812 213.503906 271.066406 214.078125 270.046875 C 214.605469 269.109375 215.464844 268.789062 216.238281 269.078125 C 217.039062 269.386719 217.507812 270.269531 217.160156 271.332031 C 216.582031 273.085938 215.839844 274.78125 215.1875 276.511719 C 214.195312 279.132812 213.277344 281.777344 212.222656 284.359375 C 211.613281 285.863281 210.574219 287.078125 209.039062 287.761719 Z M 242.964844 283.070312 C 243 281.691406 242.710938 280.382812 241.84375 279.3125 C 239.601562 276.542969 237.3125 273.804688 234.980469 271.089844 C 234.523438 270.5625 233.953125 270.132812 233.316406 269.839844 C 232.898438 269.648438 232.148438 269.636719 231.859375 269.894531 C 231.523438 270.199219 231.453125 270.882812 231.421875 271.40625 C 231.40625 271.710938 231.644531 272.066406 231.839844 272.355469 C 234.199219 275.730469 236.589844 279.085938 239.671875 281.847656 C 240.496094 282.589844 241.71875 282.890625 242.761719 283.390625 Z M 228.3125 288.703125 C 228.328125 285.066406 228.4375 281.4375 227.488281 277.867188 C 227.261719 277.015625 227.265625 276.097656 227.105469 275.222656 C 226.957031 274.449219 226.820312 273.652344 226.511719 272.929688 C 226.246094 272.277344 225.65625 271.875 224.882812 272.0625 C 224.152344 272.238281 223.839844 272.824219 223.828125 273.496094 C 223.796875 274.929688 223.714844 276.378906 223.886719 277.789062 C 224.246094 280.605469 224.746094 283.398438 225.210938 286.191406 C 225.390625 287.292969 225.582031 288.398438 225.804688 289.488281 C 225.984375 290.332031 226.296875 291.128906 227.191406 291.585938 C 228.046875 290.78125 228.308594 289.773438 228.3125 288.703125 Z M 228.3125 288.703125 " fill-opacity="1" fill-rule="nonzero"/></g></g></g><g clip-path="url(#fcbbf3dc94)"><g clip-path="url(#8ce4871bbd)"><g clip-path="url(#91c45d81f0)"><path fill="#b8312a" d="M 167.683594 285.851562 C 167.390625 284.378906 167.765625 283.050781 168.425781 281.71875 C 170.003906 278.523438 171.464844 275.269531 173.03125 272.066406 C 173.5625 271.007812 174.164062 269.996094 174.832031 269.035156 C 175.445312 268.148438 176.332031 267.910156 177.074219 268.273438 C 177.839844 268.65625 178.226562 269.578125 177.777344 270.601562 C 177.039062 272.292969 176.140625 273.910156 175.328125 275.574219 C 174.09375 278.089844 172.929688 280.636719 171.636719 283.105469 C 170.886719 284.546875 169.738281 285.65625 168.144531 286.195312 Z M 202.363281 284.722656 C 202.527344 283.351562 202.363281 282.023438 201.601562 280.875 C 199.628906 277.90625 197.609375 274.964844 195.542969 272.042969 C 195.140625 271.472656 194.609375 270.992188 194.003906 270.640625 C 193.605469 270.410156 192.859375 270.328125 192.546875 270.554688 C 192.1875 270.828125 192.050781 271.503906 191.972656 272.019531 C 191.925781 272.324219 192.128906 272.699219 192.296875 273.003906 C 194.328125 276.585938 196.390625 280.152344 199.199219 283.195312 C 199.949219 284.011719 201.136719 284.425781 202.128906 285.023438 Z M 187.246094 288.949219 C 187.601562 285.328125 188.050781 281.726562 187.445312 278.082031 C 187.296875 277.210938 187.390625 276.296875 187.3125 275.414062 C 187.238281 274.628906 187.175781 273.824219 186.941406 273.074219 C 186.734375 272.402344 186.1875 271.945312 185.398438 272.058594 C 184.652344 272.164062 184.289062 272.71875 184.214844 273.386719 C 184.046875 274.808594 183.832031 276.246094 183.867188 277.664062 C 183.960938 280.503906 184.195312 283.332031 184.390625 286.15625 C 184.46875 287.265625 184.554688 288.386719 184.675781 289.492188 C 184.773438 290.351562 185.011719 291.171875 185.859375 291.710938 C 186.785156 290.992188 187.140625 290.015625 187.246094 288.949219 Z M 187.246094 288.949219 " fill-opacity="1" fill-rule="nonzero"/></g></g></g><g fill="#b8312a" fill-opacity="1"><g transform="translate(100.030602, 265.987232)"><g><path d="M -20.78125 -18.46875 C -21.15625 -17.414062 -21.097656 -16.378906 -20.609375 -15.359375 C -20.148438 -14.359375 -19.394531 -13.671875 -18.34375 -13.296875 C -17.09375 -12.847656 -15.929688 -13.070312 -14.859375 -13.96875 C -14.410156 -14.363281 -13.390625 -15.671875 -11.796875 -17.890625 C -10.410156 -19.773438 -9.113281 -21.03125 -7.90625 -21.65625 C -6.039062 -22.632812 -3.929688 -22.703125 -1.578125 -21.859375 C 0.734375 -21.035156 2.410156 -19.5 3.453125 -17.25 C 4.484375 -15.03125 4.585938 -12.78125 3.765625 -10.5 L 1.25 -3.5 C 1.039062 -2.90625 0.632812 -2.472656 0.03125 -2.203125 C -0.570312 -1.898438 -1.171875 -1.859375 -1.765625 -2.078125 L -1.890625 -2.125 C -2.484375 -2.332031 -2.921875 -2.742188 -3.203125 -3.359375 C -3.484375 -3.953125 -3.519531 -4.546875 -3.3125 -5.140625 L -0.71875 -12.328125 C -0.34375 -13.390625 -0.382812 -14.410156 -0.84375 -15.390625 C -1.332031 -16.421875 -2.101562 -17.125 -3.15625 -17.5 C -4.382812 -17.945312 -5.546875 -17.710938 -6.640625 -16.796875 C -7.148438 -16.378906 -8.222656 -15.09375 -9.859375 -12.9375 C -11.285156 -11.082031 -12.609375 -9.828125 -13.828125 -9.171875 C -15.640625 -8.222656 -17.664062 -8.148438 -19.90625 -8.953125 C -22.207031 -9.773438 -23.882812 -11.296875 -24.9375 -13.515625 C -25.988281 -15.722656 -26.109375 -17.96875 -25.296875 -20.25 L -23.5 -25.21875 C -23.28125 -25.832031 -22.863281 -26.28125 -22.25 -26.5625 C -21.664062 -26.832031 -21.070312 -26.863281 -20.46875 -26.65625 L -20.359375 -26.609375 C -19.753906 -26.398438 -19.304688 -26 -19.015625 -25.40625 C -18.742188 -24.800781 -18.71875 -24.191406 -18.9375 -23.578125 Z M -20.78125 -18.46875 "/></g></g></g><g fill="#b8312a" fill-opacity="1"><g transform="translate(107.263997, 245.849033)"><g><path d="M -19.453125 -12.4375 C -19.222656 -13.0625 -18.816406 -13.5 -18.234375 -13.75 C -17.617188 -14.03125 -17.007812 -14.0625 -16.40625 -13.84375 L 0.3125 -7.84375 C 0.9375 -7.613281 1.367188 -7.207031 1.609375 -6.625 C 1.921875 -6.050781 1.960938 -5.453125 1.734375 -4.828125 L 1.71875 -4.78125 C 1.488281 -4.15625 1.078125 -3.710938 0.484375 -3.453125 C -0.0859375 -3.140625 -0.6875 -3.097656 -1.3125 -3.328125 L -18.03125 -9.328125 C -18.632812 -9.546875 -19.078125 -9.960938 -19.359375 -10.578125 C -19.660156 -11.160156 -19.695312 -11.765625 -19.46875 -12.390625 Z M -21.859375 -13.25 C -22.109375 -12.539062 -22.578125 -12.023438 -23.265625 -11.703125 C -23.941406 -11.378906 -24.628906 -11.347656 -25.328125 -11.609375 C -26.023438 -11.859375 -26.539062 -12.320312 -26.875 -13 C -27.1875 -13.675781 -27.21875 -14.367188 -26.96875 -15.078125 C -26.71875 -15.785156 -26.253906 -16.300781 -25.578125 -16.625 C -24.898438 -16.976562 -24.195312 -17.023438 -23.46875 -16.765625 C -22.769531 -16.503906 -22.269531 -16.023438 -21.96875 -15.328125 C -21.644531 -14.648438 -21.609375 -13.957031 -21.859375 -13.25 Z M -21.859375 -13.25 "/></g></g></g><g fill="#b8312a" fill-opacity="1"><g transform="translate(110.698169, 236.288097)"><g><path d="M -4.28125 -9.140625 C -3.675781 -8.921875 -3.082031 -8.953125 -2.5 -9.234375 C -1.925781 -9.503906 -1.53125 -9.941406 -1.3125 -10.546875 L 0.609375 -15.890625 C 0.835938 -16.515625 1.25 -16.960938 1.84375 -17.234375 C 2.46875 -17.523438 3.078125 -17.5625 3.671875 -17.34375 L 3.71875 -17.328125 C 4.34375 -17.097656 4.773438 -16.691406 5.015625 -16.109375 C 5.316406 -15.503906 5.351562 -14.890625 5.125 -14.265625 L 3.203125 -8.921875 C 2.535156 -7.054688 1.316406 -5.707031 -0.453125 -4.875 C -2.222656 -4.039062 -4.039062 -3.957031 -5.90625 -4.625 L -25.703125 -11.734375 C -26.304688 -11.953125 -26.753906 -12.367188 -27.046875 -12.984375 C -27.316406 -13.566406 -27.34375 -14.15625 -27.125 -14.75 L -27.09375 -14.828125 C -26.882812 -15.398438 -26.492188 -15.84375 -25.921875 -16.15625 C -25.296875 -16.4375 -24.679688 -16.46875 -24.078125 -16.25 Z M -4.28125 -9.140625 "/></g></g></g><g fill="#b8312a" fill-opacity="1"><g transform="translate(116.687689, 219.612923)"><g><path d="M -12.390625 -17.84375 C -12.984375 -16.164062 -12.898438 -14.523438 -12.140625 -12.921875 C -11.367188 -11.296875 -10.144531 -10.179688 -8.46875 -9.578125 L -8.3125 -9.53125 L -9.25 -21.46875 C -10.664062 -20.925781 -11.710938 -19.71875 -12.390625 -17.84375 Z M -7.265625 -26.875 C -6.910156 -26.894531 -6.582031 -26.847656 -6.28125 -26.734375 C -6 -26.640625 -5.753906 -26.515625 -5.546875 -26.359375 C -5.046875 -25.921875 -4.773438 -25.363281 -4.734375 -24.6875 C -4.566406 -22.707031 -4.359375 -20.097656 -4.109375 -16.859375 C -3.773438 -12.796875 -3.570312 -10.429688 -3.5 -9.765625 C -1.988281 -10.265625 -0.882812 -11.492188 -0.1875 -13.453125 C 0.289062 -14.765625 0.332031 -16.097656 -0.0625 -17.453125 C -0.445312 -18.753906 -1.164062 -19.828125 -2.21875 -20.671875 C -3.101562 -21.390625 -3.351562 -22.289062 -2.96875 -23.375 C -2.695312 -24.125 -2.160156 -24.617188 -1.359375 -24.859375 C -0.867188 -24.984375 -0.40625 -24.96875 0.03125 -24.8125 C 0.28125 -24.71875 0.523438 -24.578125 0.765625 -24.390625 C 2.628906 -22.921875 3.863281 -21.039062 4.46875 -18.75 C 5.144531 -16.4375 5.070312 -14.140625 4.25 -11.859375 C 3.207031 -8.941406 1.273438 -6.832031 -1.546875 -5.53125 C -4.347656 -4.1875 -7.207031 -4.035156 -10.125 -5.078125 C -13.03125 -6.117188 -15.15625 -8.054688 -16.5 -10.890625 C -17.832031 -13.691406 -17.976562 -16.550781 -16.9375 -19.46875 C -16.175781 -21.570312 -14.90625 -23.300781 -13.125 -24.65625 C -11.375 -25.945312 -9.421875 -26.6875 -7.265625 -26.875 Z M -7.265625 -26.875 "/></g></g></g><g fill="#b8312a" fill-opacity="1"><g transform="translate(125.124399, 196.124628)"><g><path d="M 5.34375 -21.84375 C 5.96875 -21.613281 6.40625 -21.21875 6.65625 -20.65625 C 6.9375 -20.03125 6.972656 -19.421875 6.765625 -18.828125 L 6.75 -18.78125 C 6.53125 -18.175781 6.113281 -17.734375 5.5 -17.453125 C 4.945312 -17.160156 4.359375 -17.128906 3.734375 -17.359375 L -13.25 -23.453125 C -14.625 -23.953125 -15.976562 -23.894531 -17.3125 -23.28125 C -18.675781 -22.644531 -19.609375 -21.625 -20.109375 -20.21875 C -20.609375 -18.84375 -20.523438 -17.488281 -19.859375 -16.15625 C -19.234375 -14.84375 -18.234375 -13.9375 -16.859375 -13.4375 L 0.125 -7.34375 C 0.75 -7.113281 1.1875 -6.707031 1.4375 -6.125 C 1.71875 -5.5 1.753906 -4.898438 1.546875 -4.328125 L 1.53125 -4.25 C 1.3125 -3.65625 0.898438 -3.222656 0.296875 -2.953125 C -0.265625 -2.640625 -0.859375 -2.597656 -1.484375 -2.828125 L -18.46875 -8.921875 C -21.09375 -9.867188 -23.003906 -11.609375 -24.203125 -14.140625 C -25.390625 -16.660156 -25.515625 -19.222656 -24.578125 -21.828125 C -23.628906 -24.460938 -21.894531 -26.378906 -19.375 -27.578125 C -16.84375 -28.765625 -14.265625 -28.882812 -11.640625 -27.9375 Z M 5.34375 -21.84375 "/></g></g></g><g fill="#b8312a" fill-opacity="1"><g transform="translate(133.412385, 173.05039)"><g><path d="M -27.234375 -14.453125 C -27.023438 -15.023438 -26.628906 -15.46875 -26.046875 -15.78125 C -25.429688 -16.070312 -24.820312 -16.109375 -24.21875 -15.890625 L -18.90625 -13.984375 L -17.90625 -16.71875 C -17.695312 -17.320312 -17.289062 -17.753906 -16.6875 -18.015625 C -16.070312 -18.316406 -15.460938 -18.359375 -14.859375 -18.140625 L -14.8125 -18.125 C -14.1875 -17.90625 -13.75 -17.484375 -13.5 -16.859375 C -13.21875 -16.285156 -13.179688 -15.695312 -13.390625 -15.09375 L -14.390625 -12.359375 L -3.484375 -8.453125 C -3.128906 -8.316406 -2.785156 -8.316406 -2.453125 -8.453125 C -2.128906 -8.617188 -1.898438 -8.890625 -1.765625 -9.265625 L -1.234375 -10.734375 C -1.023438 -11.335938 -0.617188 -11.765625 -0.015625 -12.015625 C 0.609375 -12.328125 1.21875 -12.375 1.8125 -12.15625 L 1.859375 -12.140625 C 2.484375 -11.910156 2.914062 -11.492188 3.15625 -10.890625 C 3.445312 -10.304688 3.488281 -9.710938 3.28125 -9.109375 L 2.75 -7.640625 C 2.164062 -6.035156 1.109375 -4.875 -0.421875 -4.15625 C -1.953125 -3.425781 -3.515625 -3.347656 -5.109375 -3.921875 L -25.84375 -11.359375 C -26.445312 -11.578125 -26.894531 -12 -27.1875 -12.625 C -27.445312 -13.1875 -27.472656 -13.769531 -27.265625 -14.375 Z M -27.234375 -14.453125 "/></g></g></g><g fill="#86a459" fill-opacity="1"><g transform="translate(256.426255, 263.599258)"><g><path d="M 3.421875 -12.5625 L -2.171875 -27.203125 C -2.535156 -28.191406 -2.347656 -29.050781 -1.609375 -29.78125 L -1.578125 -29.796875 C -0.960938 -30.390625 -0.242188 -30.59375 0.578125 -30.40625 C 1.066406 -30.3125 1.472656 -30.101562 1.796875 -29.78125 C 2.015625 -29.550781 2.175781 -29.269531 2.28125 -28.9375 L 8.828125 -11.734375 C 9.472656 -10.234375 9.210938 -8.921875 8.046875 -7.796875 C 6.859375 -6.640625 5.53125 -6.414062 4.0625 -7.125 L -12.9375 -14.203125 C -13.238281 -14.347656 -13.492188 -14.523438 -13.703125 -14.734375 C -14.015625 -15.054688 -14.222656 -15.460938 -14.328125 -15.953125 C -14.484375 -16.796875 -14.253906 -17.519531 -13.640625 -18.125 L -13.609375 -18.15625 C -12.859375 -18.875 -12.003906 -19.023438 -11.046875 -18.609375 C -3.742188 -15.546875 0.457031 -13.785156 1.5625 -13.328125 C 1.601562 -13.296875 2.222656 -13.039062 3.421875 -12.5625 Z M 3.421875 -12.5625 "/></g></g></g><g fill="#86a459" fill-opacity="1"><g transform="translate(275.44751, 245.712561)"><g><path d="M -21.28125 -27.578125 C -19.601562 -31.441406 -16.800781 -34.144531 -12.875 -35.6875 C -8.9375 -37.25 -5.035156 -37.1875 -1.171875 -35.5 C 2.671875 -33.832031 5.363281 -31.023438 6.90625 -27.078125 C 8.445312 -23.160156 8.378906 -19.269531 6.703125 -15.40625 C 5.023438 -11.5625 2.222656 -8.867188 -1.703125 -7.328125 C -5.617188 -5.785156 -9.5 -5.847656 -13.34375 -7.515625 C -17.207031 -9.203125 -19.921875 -12.007812 -21.484375 -15.9375 C -23.023438 -19.851562 -22.957031 -23.734375 -21.28125 -27.578125 Z M -16.921875 -25.6875 C -18.066406 -23.050781 -18.109375 -20.378906 -17.046875 -17.671875 C -15.972656 -14.984375 -14.101562 -13.0625 -11.4375 -11.90625 C -8.769531 -10.75 -6.101562 -10.695312 -3.4375 -11.75 C -0.757812 -12.820312 1.148438 -14.675781 2.296875 -17.3125 C 3.453125 -19.976562 3.515625 -22.65625 2.484375 -25.34375 C 1.441406 -28.039062 -0.410156 -29.96875 -3.078125 -31.125 C -5.742188 -32.28125 -8.425781 -32.328125 -11.125 -31.265625 C -13.832031 -30.210938 -15.765625 -28.351562 -16.921875 -25.6875 Z M -16.921875 -25.6875 "/></g></g></g><g fill="#86a459" fill-opacity="1"><g transform="translate(287.822939, 211.817643)"><g><path d="M -21.859375 -7.4375 C -21.785156 -8.101562 -21.488281 -8.628906 -20.96875 -9.015625 C -20.445312 -9.429688 -19.867188 -9.609375 -19.234375 -9.546875 L -1.5625 -7.6875 C -0.90625 -7.613281 -0.390625 -7.320312 -0.015625 -6.8125 C 0.421875 -6.332031 0.601562 -5.757812 0.53125 -5.09375 L 0.53125 -5.046875 C 0.457031 -4.390625 0.160156 -3.863281 -0.359375 -3.46875 C -0.835938 -3.03125 -1.40625 -2.847656 -2.0625 -2.921875 L -19.734375 -4.78125 C -20.367188 -4.84375 -20.894531 -5.140625 -21.3125 -5.671875 C -21.75 -6.160156 -21.929688 -6.734375 -21.859375 -7.390625 Z M -24.375 -7.65625 C -24.457031 -6.914062 -24.789062 -6.3125 -25.375 -5.84375 C -25.957031 -5.363281 -26.617188 -5.164062 -27.359375 -5.25 C -28.097656 -5.320312 -28.710938 -5.648438 -29.203125 -6.234375 C -29.671875 -6.828125 -29.863281 -7.492188 -29.78125 -8.234375 C -29.707031 -8.984375 -29.378906 -9.59375 -28.796875 -10.0625 C -28.234375 -10.5625 -27.566406 -10.773438 -26.796875 -10.703125 C -26.054688 -10.617188 -25.445312 -10.273438 -24.96875 -9.671875 C -24.5 -9.078125 -24.300781 -8.40625 -24.375 -7.65625 Z M -24.375 -7.65625 "/></g></g></g><g fill="#86a459" fill-opacity="1"><g transform="translate(289.639087, 199.692945)"><g><path d="M -32.421875 -12.609375 C -32.585938 -13.910156 -32.597656 -15.1875 -32.453125 -16.4375 C -32.285156 -17.664062 -31.609375 -18.359375 -30.421875 -18.515625 L -30.34375 -18.53125 C -29.601562 -18.625 -28.957031 -18.398438 -28.40625 -17.859375 C -28 -17.492188 -27.757812 -17.054688 -27.6875 -16.546875 C -27.664062 -16.359375 -27.671875 -16.144531 -27.703125 -15.90625 C -27.828125 -15.019531 -27.832031 -14.128906 -27.71875 -13.234375 C -27.34375 -10.378906 -26.003906 -8.0625 -23.703125 -6.28125 C -21.390625 -4.550781 -18.796875 -3.875 -15.921875 -4.25 C -13.035156 -4.632812 -10.722656 -5.957031 -8.984375 -8.21875 C -7.234375 -10.519531 -6.546875 -13.097656 -6.921875 -15.953125 C -7.035156 -16.847656 -7.242188 -17.710938 -7.546875 -18.546875 C -7.628906 -18.765625 -7.679688 -18.96875 -7.703125 -19.15625 C -7.773438 -19.664062 -7.679688 -20.148438 -7.421875 -20.609375 C -7.046875 -21.273438 -6.457031 -21.660156 -5.65625 -21.765625 L -5.640625 -21.765625 C -4.421875 -21.921875 -3.585938 -21.425781 -3.140625 -20.28125 C -2.660156 -19.113281 -2.335938 -17.878906 -2.171875 -16.578125 C -1.628906 -12.421875 -2.644531 -8.671875 -5.21875 -5.328125 C -7.78125 -1.984375 -11.140625 -0.0351562 -15.296875 0.515625 C -19.472656 1.054688 -23.238281 0.0390625 -26.59375 -2.53125 C -29.9375 -5.09375 -31.878906 -8.453125 -32.421875 -12.609375 Z M -32.421875 -12.609375 "/></g></g></g><g fill="#86a459" fill-opacity="1"><g transform="translate(285.82288, 173.502392)"><g><path d="M -21.46875 -3.25 C -20.664062 -1.664062 -19.414062 -0.601562 -17.71875 -0.0625 C -16.007812 0.488281 -14.363281 0.363281 -12.78125 -0.4375 L -12.640625 -0.515625 L -21.9375 -8.03125 C -22.519531 -6.632812 -22.363281 -5.039062 -21.46875 -3.25 Z M -24.515625 -13.203125 C -24.296875 -13.460938 -24.039062 -13.664062 -23.75 -13.8125 C -23.488281 -13.945312 -23.222656 -14.035156 -22.953125 -14.078125 C -22.296875 -14.140625 -21.707031 -13.957031 -21.1875 -13.53125 C -19.632812 -12.289062 -17.59375 -10.648438 -15.0625 -8.609375 C -11.894531 -6.054688 -10.039062 -4.578125 -9.5 -4.171875 C -8.820312 -5.617188 -8.953125 -7.265625 -9.890625 -9.109375 C -10.515625 -10.359375 -11.457031 -11.304688 -12.71875 -11.953125 C -13.925781 -12.566406 -15.203125 -12.785156 -16.546875 -12.609375 C -17.671875 -12.453125 -18.492188 -12.882812 -19.015625 -13.90625 C -19.367188 -14.625 -19.359375 -15.347656 -18.984375 -16.078125 C -18.742188 -16.535156 -18.414062 -16.867188 -18 -17.078125 C -17.757812 -17.191406 -17.484375 -17.269531 -17.171875 -17.3125 C -14.835938 -17.65625 -12.625 -17.265625 -10.53125 -16.140625 C -8.394531 -15.035156 -6.78125 -13.398438 -5.6875 -11.234375 C -4.289062 -8.472656 -4.082031 -5.625 -5.0625 -2.6875 C -6.019531 0.269531 -7.878906 2.453125 -10.640625 3.859375 C -13.398438 5.253906 -16.269531 5.460938 -19.25 4.484375 C -22.207031 3.535156 -24.382812 1.679688 -25.78125 -1.078125 C -26.789062 -3.078125 -27.171875 -5.1875 -26.921875 -7.40625 C -26.671875 -9.570312 -25.867188 -11.503906 -24.515625 -13.203125 Z M -24.515625 -13.203125 "/></g></g></g><g clip-path="url(#1fc6a55110)"><g clip-path="url(#e7777cb115)"><path fill="#3c3a47" d="M 186.074219 132.824219 L 198.976562 132.824219 L 198.976562 145.773438 L 186.074219 145.773438 Z M 186.074219 132.824219 " fill-opacity="1" fill-rule="nonzero"/></g></g><g clip-path="url(#7b378ea71f)"><g clip-path="url(#5ee14cd48c)"><path fill="#3c3a47" d="M 207.675781 131.023438 L 219.523438 131.023438 L 219.523438 144.171875 L 207.675781 144.171875 Z M 207.675781 131.023438 " fill-opacity="1" fill-rule="nonzero"/></g></g><g clip-path="url(#648a861776)"><g clip-path="url(#85f022ab21)"><path fill="#3c3a47" d="M 211.425781 133.875 L 218.84375 133.875 L 218.84375 141.148438 L 211.425781 141.148438 Z M 211.425781 133.875 " fill-opacity="1" fill-rule="nonzero"/></g></g><g clip-path="url(#e1e10af427)"><g clip-path="url(#beaa1bc0fd)"><path fill="#3c3a47" d="M 211.574219 134.023438 L 218.992188 134.023438 L 218.992188 141.300781 L 211.574219 141.300781 Z M 211.574219 134.023438 " fill-opacity="1" fill-rule="nonzero"/></g></g><g clip-path="url(#f3eead4c5d)"><g clip-path="url(#054fabc5a2)"><path fill="#3c3a47" d="M 210.074219 135.375 L 217.492188 135.375 L 217.492188 142.648438 L 210.074219 142.648438 Z M 210.074219 135.375 " fill-opacity="1" fill-rule="nonzero"/></g></g><g clip-path="url(#cead0dd67f)"><g clip-path="url(#7a53589f29)"><path fill="#3c3a47" d="M 210.824219 134.324219 L 218.242188 134.324219 L 218.242188 141.601562 L 210.824219 141.601562 Z M 210.824219 134.324219 " fill-opacity="1" fill-rule="nonzero"/></g></g><g clip-path="url(#2732eee60d)"><g clip-path="url(#c4fb96830b)"><path fill="#3c3a47" d="M 210.824219 134.476562 L 218.242188 134.476562 L 218.242188 141.75 L 210.824219 141.75 Z M 210.824219 134.476562 " fill-opacity="1" fill-rule="nonzero"/></g></g></svg>